G04 #@! TF.GenerationSoftware,KiCad,Pcbnew,(5.1.2-1)-1*
G04 #@! TF.CreationDate,2019-07-19T11:57:03-07:00*
G04 #@! TF.ProjectId,class v3,636c6173-7320-4763-932e-6b696361645f,rev?*
G04 #@! TF.SameCoordinates,Original*
G04 #@! TF.FileFunction,Copper,L1,Top*
G04 #@! TF.FilePolarity,Positive*
%FSLAX46Y46*%
G04 Gerber Fmt 4.6, Leading zero omitted, Abs format (unit mm)*
G04 Created by KiCad (PCBNEW (5.1.2-1)-1) date 2019-07-19 11:57:03*
%MOMM*%
%LPD*%
G04 APERTURE LIST*
%ADD10R,0.700000X0.600000*%
%ADD11C,1.500000*%
%ADD12R,0.900000X0.500000*%
%ADD13R,0.500000X0.900000*%
%ADD14C,0.100000*%
%ADD15C,2.600000*%
%ADD16C,0.250000*%
%ADD17C,0.800000*%
%ADD18C,0.600000*%
%ADD19C,0.250000*%
G04 APERTURE END LIST*
D10*
X20170000Y-20830000D03*
X20170000Y-19430000D03*
X20170000Y-27510000D03*
X20170000Y-28910000D03*
D11*
X22020000Y-20870000D03*
X26350000Y-28420000D03*
D12*
X20260000Y-24920000D03*
X20260000Y-23420000D03*
D13*
X21260000Y-19370000D03*
X22760000Y-19370000D03*
X22790000Y-28500000D03*
X21290000Y-28500000D03*
D11*
X21860000Y-23010000D03*
X25220000Y-21560000D03*
X26350000Y-19670000D03*
X24170000Y-19670000D03*
D14*
G36*
X24384504Y-23746280D02*
G01*
X24408773Y-23749880D01*
X24432571Y-23755841D01*
X24455671Y-23764106D01*
X24477849Y-23774596D01*
X24498893Y-23787209D01*
X24518598Y-23801823D01*
X24536777Y-23818299D01*
X26021701Y-25303223D01*
X26038177Y-25321402D01*
X26052791Y-25341107D01*
X26065404Y-25362151D01*
X26075894Y-25384329D01*
X26084159Y-25407429D01*
X26090120Y-25431227D01*
X26093720Y-25455496D01*
X26094924Y-25480000D01*
X26093720Y-25504504D01*
X26090120Y-25528773D01*
X26084159Y-25552571D01*
X26075894Y-25575671D01*
X26065404Y-25597849D01*
X26052791Y-25618893D01*
X26038177Y-25638598D01*
X26021701Y-25656777D01*
X24536777Y-27141701D01*
X24518598Y-27158177D01*
X24498893Y-27172791D01*
X24477849Y-27185404D01*
X24455671Y-27195894D01*
X24432571Y-27204159D01*
X24408773Y-27210120D01*
X24384504Y-27213720D01*
X24360000Y-27214924D01*
X24335496Y-27213720D01*
X24311227Y-27210120D01*
X24287429Y-27204159D01*
X24264329Y-27195894D01*
X24242151Y-27185404D01*
X24221107Y-27172791D01*
X24201402Y-27158177D01*
X24183223Y-27141701D01*
X22698299Y-25656777D01*
X22681823Y-25638598D01*
X22667209Y-25618893D01*
X22654596Y-25597849D01*
X22644106Y-25575671D01*
X22635841Y-25552571D01*
X22629880Y-25528773D01*
X22626280Y-25504504D01*
X22625076Y-25480000D01*
X22626280Y-25455496D01*
X22629880Y-25431227D01*
X22635841Y-25407429D01*
X22644106Y-25384329D01*
X22654596Y-25362151D01*
X22667209Y-25341107D01*
X22681823Y-25321402D01*
X22698299Y-25303223D01*
X24183223Y-23818299D01*
X24201402Y-23801823D01*
X24221107Y-23787209D01*
X24242151Y-23774596D01*
X24264329Y-23764106D01*
X24287429Y-23755841D01*
X24311227Y-23749880D01*
X24335496Y-23746280D01*
X24360000Y-23745076D01*
X24384504Y-23746280D01*
X24384504Y-23746280D01*
G37*
D15*
X24360000Y-25480000D03*
D14*
G36*
X22509971Y-25771355D02*
G01*
X22516038Y-25772255D01*
X22521988Y-25773745D01*
X22527763Y-25775812D01*
X22533307Y-25778434D01*
X22538568Y-25781587D01*
X22543495Y-25785241D01*
X22548039Y-25789360D01*
X22636427Y-25877748D01*
X22640546Y-25882292D01*
X22644200Y-25887219D01*
X22647353Y-25892480D01*
X22649975Y-25898024D01*
X22652042Y-25903799D01*
X22653532Y-25909749D01*
X22654432Y-25915816D01*
X22654733Y-25921942D01*
X22654432Y-25928068D01*
X22653532Y-25934135D01*
X22652042Y-25940085D01*
X22649975Y-25945860D01*
X22647353Y-25951404D01*
X22644200Y-25956665D01*
X22640546Y-25961592D01*
X22636427Y-25966136D01*
X22123775Y-26478788D01*
X22119231Y-26482907D01*
X22114304Y-26486561D01*
X22109043Y-26489714D01*
X22103499Y-26492336D01*
X22097724Y-26494403D01*
X22091774Y-26495893D01*
X22085707Y-26496793D01*
X22079581Y-26497094D01*
X22073455Y-26496793D01*
X22067388Y-26495893D01*
X22061438Y-26494403D01*
X22055663Y-26492336D01*
X22050119Y-26489714D01*
X22044858Y-26486561D01*
X22039931Y-26482907D01*
X22035387Y-26478788D01*
X21946999Y-26390400D01*
X21942880Y-26385856D01*
X21939226Y-26380929D01*
X21936073Y-26375668D01*
X21933451Y-26370124D01*
X21931384Y-26364349D01*
X21929894Y-26358399D01*
X21928994Y-26352332D01*
X21928693Y-26346206D01*
X21928994Y-26340080D01*
X21929894Y-26334013D01*
X21931384Y-26328063D01*
X21933451Y-26322288D01*
X21936073Y-26316744D01*
X21939226Y-26311483D01*
X21942880Y-26306556D01*
X21946999Y-26302012D01*
X22459651Y-25789360D01*
X22464195Y-25785241D01*
X22469122Y-25781587D01*
X22474383Y-25778434D01*
X22479927Y-25775812D01*
X22485702Y-25773745D01*
X22491652Y-25772255D01*
X22497719Y-25771355D01*
X22503845Y-25771054D01*
X22509971Y-25771355D01*
X22509971Y-25771355D01*
G37*
D16*
X22291713Y-26134074D03*
D14*
G36*
X22863524Y-26124908D02*
G01*
X22869591Y-26125808D01*
X22875541Y-26127298D01*
X22881316Y-26129365D01*
X22886860Y-26131987D01*
X22892121Y-26135140D01*
X22897048Y-26138794D01*
X22901592Y-26142913D01*
X22989980Y-26231301D01*
X22994099Y-26235845D01*
X22997753Y-26240772D01*
X23000906Y-26246033D01*
X23003528Y-26251577D01*
X23005595Y-26257352D01*
X23007085Y-26263302D01*
X23007985Y-26269369D01*
X23008286Y-26275495D01*
X23007985Y-26281621D01*
X23007085Y-26287688D01*
X23005595Y-26293638D01*
X23003528Y-26299413D01*
X23000906Y-26304957D01*
X22997753Y-26310218D01*
X22994099Y-26315145D01*
X22989980Y-26319689D01*
X22477328Y-26832341D01*
X22472784Y-26836460D01*
X22467857Y-26840114D01*
X22462596Y-26843267D01*
X22457052Y-26845889D01*
X22451277Y-26847956D01*
X22445327Y-26849446D01*
X22439260Y-26850346D01*
X22433134Y-26850647D01*
X22427008Y-26850346D01*
X22420941Y-26849446D01*
X22414991Y-26847956D01*
X22409216Y-26845889D01*
X22403672Y-26843267D01*
X22398411Y-26840114D01*
X22393484Y-26836460D01*
X22388940Y-26832341D01*
X22300552Y-26743953D01*
X22296433Y-26739409D01*
X22292779Y-26734482D01*
X22289626Y-26729221D01*
X22287004Y-26723677D01*
X22284937Y-26717902D01*
X22283447Y-26711952D01*
X22282547Y-26705885D01*
X22282246Y-26699759D01*
X22282547Y-26693633D01*
X22283447Y-26687566D01*
X22284937Y-26681616D01*
X22287004Y-26675841D01*
X22289626Y-26670297D01*
X22292779Y-26665036D01*
X22296433Y-26660109D01*
X22300552Y-26655565D01*
X22813204Y-26142913D01*
X22817748Y-26138794D01*
X22822675Y-26135140D01*
X22827936Y-26131987D01*
X22833480Y-26129365D01*
X22839255Y-26127298D01*
X22845205Y-26125808D01*
X22851272Y-26124908D01*
X22857398Y-26124607D01*
X22863524Y-26124908D01*
X22863524Y-26124908D01*
G37*
D16*
X22645266Y-26487627D03*
D14*
G36*
X23217077Y-26478462D02*
G01*
X23223144Y-26479362D01*
X23229094Y-26480852D01*
X23234869Y-26482919D01*
X23240413Y-26485541D01*
X23245674Y-26488694D01*
X23250601Y-26492348D01*
X23255145Y-26496467D01*
X23343533Y-26584855D01*
X23347652Y-26589399D01*
X23351306Y-26594326D01*
X23354459Y-26599587D01*
X23357081Y-26605131D01*
X23359148Y-26610906D01*
X23360638Y-26616856D01*
X23361538Y-26622923D01*
X23361839Y-26629049D01*
X23361538Y-26635175D01*
X23360638Y-26641242D01*
X23359148Y-26647192D01*
X23357081Y-26652967D01*
X23354459Y-26658511D01*
X23351306Y-26663772D01*
X23347652Y-26668699D01*
X23343533Y-26673243D01*
X22830881Y-27185895D01*
X22826337Y-27190014D01*
X22821410Y-27193668D01*
X22816149Y-27196821D01*
X22810605Y-27199443D01*
X22804830Y-27201510D01*
X22798880Y-27203000D01*
X22792813Y-27203900D01*
X22786687Y-27204201D01*
X22780561Y-27203900D01*
X22774494Y-27203000D01*
X22768544Y-27201510D01*
X22762769Y-27199443D01*
X22757225Y-27196821D01*
X22751964Y-27193668D01*
X22747037Y-27190014D01*
X22742493Y-27185895D01*
X22654105Y-27097507D01*
X22649986Y-27092963D01*
X22646332Y-27088036D01*
X22643179Y-27082775D01*
X22640557Y-27077231D01*
X22638490Y-27071456D01*
X22637000Y-27065506D01*
X22636100Y-27059439D01*
X22635799Y-27053313D01*
X22636100Y-27047187D01*
X22637000Y-27041120D01*
X22638490Y-27035170D01*
X22640557Y-27029395D01*
X22643179Y-27023851D01*
X22646332Y-27018590D01*
X22649986Y-27013663D01*
X22654105Y-27009119D01*
X23166757Y-26496467D01*
X23171301Y-26492348D01*
X23176228Y-26488694D01*
X23181489Y-26485541D01*
X23187033Y-26482919D01*
X23192808Y-26480852D01*
X23198758Y-26479362D01*
X23204825Y-26478462D01*
X23210951Y-26478161D01*
X23217077Y-26478462D01*
X23217077Y-26478462D01*
G37*
D16*
X22998819Y-26841181D03*
D14*
G36*
X23570631Y-26832015D02*
G01*
X23576698Y-26832915D01*
X23582648Y-26834405D01*
X23588423Y-26836472D01*
X23593967Y-26839094D01*
X23599228Y-26842247D01*
X23604155Y-26845901D01*
X23608699Y-26850020D01*
X23697087Y-26938408D01*
X23701206Y-26942952D01*
X23704860Y-26947879D01*
X23708013Y-26953140D01*
X23710635Y-26958684D01*
X23712702Y-26964459D01*
X23714192Y-26970409D01*
X23715092Y-26976476D01*
X23715393Y-26982602D01*
X23715092Y-26988728D01*
X23714192Y-26994795D01*
X23712702Y-27000745D01*
X23710635Y-27006520D01*
X23708013Y-27012064D01*
X23704860Y-27017325D01*
X23701206Y-27022252D01*
X23697087Y-27026796D01*
X23184435Y-27539448D01*
X23179891Y-27543567D01*
X23174964Y-27547221D01*
X23169703Y-27550374D01*
X23164159Y-27552996D01*
X23158384Y-27555063D01*
X23152434Y-27556553D01*
X23146367Y-27557453D01*
X23140241Y-27557754D01*
X23134115Y-27557453D01*
X23128048Y-27556553D01*
X23122098Y-27555063D01*
X23116323Y-27552996D01*
X23110779Y-27550374D01*
X23105518Y-27547221D01*
X23100591Y-27543567D01*
X23096047Y-27539448D01*
X23007659Y-27451060D01*
X23003540Y-27446516D01*
X22999886Y-27441589D01*
X22996733Y-27436328D01*
X22994111Y-27430784D01*
X22992044Y-27425009D01*
X22990554Y-27419059D01*
X22989654Y-27412992D01*
X22989353Y-27406866D01*
X22989654Y-27400740D01*
X22990554Y-27394673D01*
X22992044Y-27388723D01*
X22994111Y-27382948D01*
X22996733Y-27377404D01*
X22999886Y-27372143D01*
X23003540Y-27367216D01*
X23007659Y-27362672D01*
X23520311Y-26850020D01*
X23524855Y-26845901D01*
X23529782Y-26842247D01*
X23535043Y-26839094D01*
X23540587Y-26836472D01*
X23546362Y-26834405D01*
X23552312Y-26832915D01*
X23558379Y-26832015D01*
X23564505Y-26831714D01*
X23570631Y-26832015D01*
X23570631Y-26832015D01*
G37*
D16*
X23352373Y-27194734D03*
D14*
G36*
X23924184Y-27185568D02*
G01*
X23930251Y-27186468D01*
X23936201Y-27187958D01*
X23941976Y-27190025D01*
X23947520Y-27192647D01*
X23952781Y-27195800D01*
X23957708Y-27199454D01*
X23962252Y-27203573D01*
X24050640Y-27291961D01*
X24054759Y-27296505D01*
X24058413Y-27301432D01*
X24061566Y-27306693D01*
X24064188Y-27312237D01*
X24066255Y-27318012D01*
X24067745Y-27323962D01*
X24068645Y-27330029D01*
X24068946Y-27336155D01*
X24068645Y-27342281D01*
X24067745Y-27348348D01*
X24066255Y-27354298D01*
X24064188Y-27360073D01*
X24061566Y-27365617D01*
X24058413Y-27370878D01*
X24054759Y-27375805D01*
X24050640Y-27380349D01*
X23537988Y-27893001D01*
X23533444Y-27897120D01*
X23528517Y-27900774D01*
X23523256Y-27903927D01*
X23517712Y-27906549D01*
X23511937Y-27908616D01*
X23505987Y-27910106D01*
X23499920Y-27911006D01*
X23493794Y-27911307D01*
X23487668Y-27911006D01*
X23481601Y-27910106D01*
X23475651Y-27908616D01*
X23469876Y-27906549D01*
X23464332Y-27903927D01*
X23459071Y-27900774D01*
X23454144Y-27897120D01*
X23449600Y-27893001D01*
X23361212Y-27804613D01*
X23357093Y-27800069D01*
X23353439Y-27795142D01*
X23350286Y-27789881D01*
X23347664Y-27784337D01*
X23345597Y-27778562D01*
X23344107Y-27772612D01*
X23343207Y-27766545D01*
X23342906Y-27760419D01*
X23343207Y-27754293D01*
X23344107Y-27748226D01*
X23345597Y-27742276D01*
X23347664Y-27736501D01*
X23350286Y-27730957D01*
X23353439Y-27725696D01*
X23357093Y-27720769D01*
X23361212Y-27716225D01*
X23873864Y-27203573D01*
X23878408Y-27199454D01*
X23883335Y-27195800D01*
X23888596Y-27192647D01*
X23894140Y-27190025D01*
X23899915Y-27187958D01*
X23905865Y-27186468D01*
X23911932Y-27185568D01*
X23918058Y-27185267D01*
X23924184Y-27185568D01*
X23924184Y-27185568D01*
G37*
D16*
X23705926Y-27548287D03*
D14*
G36*
X24808068Y-27185568D02*
G01*
X24814135Y-27186468D01*
X24820085Y-27187958D01*
X24825860Y-27190025D01*
X24831404Y-27192647D01*
X24836665Y-27195800D01*
X24841592Y-27199454D01*
X24846136Y-27203573D01*
X25358788Y-27716225D01*
X25362907Y-27720769D01*
X25366561Y-27725696D01*
X25369714Y-27730957D01*
X25372336Y-27736501D01*
X25374403Y-27742276D01*
X25375893Y-27748226D01*
X25376793Y-27754293D01*
X25377094Y-27760419D01*
X25376793Y-27766545D01*
X25375893Y-27772612D01*
X25374403Y-27778562D01*
X25372336Y-27784337D01*
X25369714Y-27789881D01*
X25366561Y-27795142D01*
X25362907Y-27800069D01*
X25358788Y-27804613D01*
X25270400Y-27893001D01*
X25265856Y-27897120D01*
X25260929Y-27900774D01*
X25255668Y-27903927D01*
X25250124Y-27906549D01*
X25244349Y-27908616D01*
X25238399Y-27910106D01*
X25232332Y-27911006D01*
X25226206Y-27911307D01*
X25220080Y-27911006D01*
X25214013Y-27910106D01*
X25208063Y-27908616D01*
X25202288Y-27906549D01*
X25196744Y-27903927D01*
X25191483Y-27900774D01*
X25186556Y-27897120D01*
X25182012Y-27893001D01*
X24669360Y-27380349D01*
X24665241Y-27375805D01*
X24661587Y-27370878D01*
X24658434Y-27365617D01*
X24655812Y-27360073D01*
X24653745Y-27354298D01*
X24652255Y-27348348D01*
X24651355Y-27342281D01*
X24651054Y-27336155D01*
X24651355Y-27330029D01*
X24652255Y-27323962D01*
X24653745Y-27318012D01*
X24655812Y-27312237D01*
X24658434Y-27306693D01*
X24661587Y-27301432D01*
X24665241Y-27296505D01*
X24669360Y-27291961D01*
X24757748Y-27203573D01*
X24762292Y-27199454D01*
X24767219Y-27195800D01*
X24772480Y-27192647D01*
X24778024Y-27190025D01*
X24783799Y-27187958D01*
X24789749Y-27186468D01*
X24795816Y-27185568D01*
X24801942Y-27185267D01*
X24808068Y-27185568D01*
X24808068Y-27185568D01*
G37*
D16*
X25014074Y-27548287D03*
D14*
G36*
X25161621Y-26832015D02*
G01*
X25167688Y-26832915D01*
X25173638Y-26834405D01*
X25179413Y-26836472D01*
X25184957Y-26839094D01*
X25190218Y-26842247D01*
X25195145Y-26845901D01*
X25199689Y-26850020D01*
X25712341Y-27362672D01*
X25716460Y-27367216D01*
X25720114Y-27372143D01*
X25723267Y-27377404D01*
X25725889Y-27382948D01*
X25727956Y-27388723D01*
X25729446Y-27394673D01*
X25730346Y-27400740D01*
X25730647Y-27406866D01*
X25730346Y-27412992D01*
X25729446Y-27419059D01*
X25727956Y-27425009D01*
X25725889Y-27430784D01*
X25723267Y-27436328D01*
X25720114Y-27441589D01*
X25716460Y-27446516D01*
X25712341Y-27451060D01*
X25623953Y-27539448D01*
X25619409Y-27543567D01*
X25614482Y-27547221D01*
X25609221Y-27550374D01*
X25603677Y-27552996D01*
X25597902Y-27555063D01*
X25591952Y-27556553D01*
X25585885Y-27557453D01*
X25579759Y-27557754D01*
X25573633Y-27557453D01*
X25567566Y-27556553D01*
X25561616Y-27555063D01*
X25555841Y-27552996D01*
X25550297Y-27550374D01*
X25545036Y-27547221D01*
X25540109Y-27543567D01*
X25535565Y-27539448D01*
X25022913Y-27026796D01*
X25018794Y-27022252D01*
X25015140Y-27017325D01*
X25011987Y-27012064D01*
X25009365Y-27006520D01*
X25007298Y-27000745D01*
X25005808Y-26994795D01*
X25004908Y-26988728D01*
X25004607Y-26982602D01*
X25004908Y-26976476D01*
X25005808Y-26970409D01*
X25007298Y-26964459D01*
X25009365Y-26958684D01*
X25011987Y-26953140D01*
X25015140Y-26947879D01*
X25018794Y-26942952D01*
X25022913Y-26938408D01*
X25111301Y-26850020D01*
X25115845Y-26845901D01*
X25120772Y-26842247D01*
X25126033Y-26839094D01*
X25131577Y-26836472D01*
X25137352Y-26834405D01*
X25143302Y-26832915D01*
X25149369Y-26832015D01*
X25155495Y-26831714D01*
X25161621Y-26832015D01*
X25161621Y-26832015D01*
G37*
D16*
X25367627Y-27194734D03*
D14*
G36*
X25515175Y-26478462D02*
G01*
X25521242Y-26479362D01*
X25527192Y-26480852D01*
X25532967Y-26482919D01*
X25538511Y-26485541D01*
X25543772Y-26488694D01*
X25548699Y-26492348D01*
X25553243Y-26496467D01*
X26065895Y-27009119D01*
X26070014Y-27013663D01*
X26073668Y-27018590D01*
X26076821Y-27023851D01*
X26079443Y-27029395D01*
X26081510Y-27035170D01*
X26083000Y-27041120D01*
X26083900Y-27047187D01*
X26084201Y-27053313D01*
X26083900Y-27059439D01*
X26083000Y-27065506D01*
X26081510Y-27071456D01*
X26079443Y-27077231D01*
X26076821Y-27082775D01*
X26073668Y-27088036D01*
X26070014Y-27092963D01*
X26065895Y-27097507D01*
X25977507Y-27185895D01*
X25972963Y-27190014D01*
X25968036Y-27193668D01*
X25962775Y-27196821D01*
X25957231Y-27199443D01*
X25951456Y-27201510D01*
X25945506Y-27203000D01*
X25939439Y-27203900D01*
X25933313Y-27204201D01*
X25927187Y-27203900D01*
X25921120Y-27203000D01*
X25915170Y-27201510D01*
X25909395Y-27199443D01*
X25903851Y-27196821D01*
X25898590Y-27193668D01*
X25893663Y-27190014D01*
X25889119Y-27185895D01*
X25376467Y-26673243D01*
X25372348Y-26668699D01*
X25368694Y-26663772D01*
X25365541Y-26658511D01*
X25362919Y-26652967D01*
X25360852Y-26647192D01*
X25359362Y-26641242D01*
X25358462Y-26635175D01*
X25358161Y-26629049D01*
X25358462Y-26622923D01*
X25359362Y-26616856D01*
X25360852Y-26610906D01*
X25362919Y-26605131D01*
X25365541Y-26599587D01*
X25368694Y-26594326D01*
X25372348Y-26589399D01*
X25376467Y-26584855D01*
X25464855Y-26496467D01*
X25469399Y-26492348D01*
X25474326Y-26488694D01*
X25479587Y-26485541D01*
X25485131Y-26482919D01*
X25490906Y-26480852D01*
X25496856Y-26479362D01*
X25502923Y-26478462D01*
X25509049Y-26478161D01*
X25515175Y-26478462D01*
X25515175Y-26478462D01*
G37*
D16*
X25721181Y-26841181D03*
D14*
G36*
X25868728Y-26124908D02*
G01*
X25874795Y-26125808D01*
X25880745Y-26127298D01*
X25886520Y-26129365D01*
X25892064Y-26131987D01*
X25897325Y-26135140D01*
X25902252Y-26138794D01*
X25906796Y-26142913D01*
X26419448Y-26655565D01*
X26423567Y-26660109D01*
X26427221Y-26665036D01*
X26430374Y-26670297D01*
X26432996Y-26675841D01*
X26435063Y-26681616D01*
X26436553Y-26687566D01*
X26437453Y-26693633D01*
X26437754Y-26699759D01*
X26437453Y-26705885D01*
X26436553Y-26711952D01*
X26435063Y-26717902D01*
X26432996Y-26723677D01*
X26430374Y-26729221D01*
X26427221Y-26734482D01*
X26423567Y-26739409D01*
X26419448Y-26743953D01*
X26331060Y-26832341D01*
X26326516Y-26836460D01*
X26321589Y-26840114D01*
X26316328Y-26843267D01*
X26310784Y-26845889D01*
X26305009Y-26847956D01*
X26299059Y-26849446D01*
X26292992Y-26850346D01*
X26286866Y-26850647D01*
X26280740Y-26850346D01*
X26274673Y-26849446D01*
X26268723Y-26847956D01*
X26262948Y-26845889D01*
X26257404Y-26843267D01*
X26252143Y-26840114D01*
X26247216Y-26836460D01*
X26242672Y-26832341D01*
X25730020Y-26319689D01*
X25725901Y-26315145D01*
X25722247Y-26310218D01*
X25719094Y-26304957D01*
X25716472Y-26299413D01*
X25714405Y-26293638D01*
X25712915Y-26287688D01*
X25712015Y-26281621D01*
X25711714Y-26275495D01*
X25712015Y-26269369D01*
X25712915Y-26263302D01*
X25714405Y-26257352D01*
X25716472Y-26251577D01*
X25719094Y-26246033D01*
X25722247Y-26240772D01*
X25725901Y-26235845D01*
X25730020Y-26231301D01*
X25818408Y-26142913D01*
X25822952Y-26138794D01*
X25827879Y-26135140D01*
X25833140Y-26131987D01*
X25838684Y-26129365D01*
X25844459Y-26127298D01*
X25850409Y-26125808D01*
X25856476Y-26124908D01*
X25862602Y-26124607D01*
X25868728Y-26124908D01*
X25868728Y-26124908D01*
G37*
D16*
X26074734Y-26487627D03*
D14*
G36*
X26222281Y-25771355D02*
G01*
X26228348Y-25772255D01*
X26234298Y-25773745D01*
X26240073Y-25775812D01*
X26245617Y-25778434D01*
X26250878Y-25781587D01*
X26255805Y-25785241D01*
X26260349Y-25789360D01*
X26773001Y-26302012D01*
X26777120Y-26306556D01*
X26780774Y-26311483D01*
X26783927Y-26316744D01*
X26786549Y-26322288D01*
X26788616Y-26328063D01*
X26790106Y-26334013D01*
X26791006Y-26340080D01*
X26791307Y-26346206D01*
X26791006Y-26352332D01*
X26790106Y-26358399D01*
X26788616Y-26364349D01*
X26786549Y-26370124D01*
X26783927Y-26375668D01*
X26780774Y-26380929D01*
X26777120Y-26385856D01*
X26773001Y-26390400D01*
X26684613Y-26478788D01*
X26680069Y-26482907D01*
X26675142Y-26486561D01*
X26669881Y-26489714D01*
X26664337Y-26492336D01*
X26658562Y-26494403D01*
X26652612Y-26495893D01*
X26646545Y-26496793D01*
X26640419Y-26497094D01*
X26634293Y-26496793D01*
X26628226Y-26495893D01*
X26622276Y-26494403D01*
X26616501Y-26492336D01*
X26610957Y-26489714D01*
X26605696Y-26486561D01*
X26600769Y-26482907D01*
X26596225Y-26478788D01*
X26083573Y-25966136D01*
X26079454Y-25961592D01*
X26075800Y-25956665D01*
X26072647Y-25951404D01*
X26070025Y-25945860D01*
X26067958Y-25940085D01*
X26066468Y-25934135D01*
X26065568Y-25928068D01*
X26065267Y-25921942D01*
X26065568Y-25915816D01*
X26066468Y-25909749D01*
X26067958Y-25903799D01*
X26070025Y-25898024D01*
X26072647Y-25892480D01*
X26075800Y-25887219D01*
X26079454Y-25882292D01*
X26083573Y-25877748D01*
X26171961Y-25789360D01*
X26176505Y-25785241D01*
X26181432Y-25781587D01*
X26186693Y-25778434D01*
X26192237Y-25775812D01*
X26198012Y-25773745D01*
X26203962Y-25772255D01*
X26210029Y-25771355D01*
X26216155Y-25771054D01*
X26222281Y-25771355D01*
X26222281Y-25771355D01*
G37*
D16*
X26428287Y-26134074D03*
D14*
G36*
X26646545Y-24463207D02*
G01*
X26652612Y-24464107D01*
X26658562Y-24465597D01*
X26664337Y-24467664D01*
X26669881Y-24470286D01*
X26675142Y-24473439D01*
X26680069Y-24477093D01*
X26684613Y-24481212D01*
X26773001Y-24569600D01*
X26777120Y-24574144D01*
X26780774Y-24579071D01*
X26783927Y-24584332D01*
X26786549Y-24589876D01*
X26788616Y-24595651D01*
X26790106Y-24601601D01*
X26791006Y-24607668D01*
X26791307Y-24613794D01*
X26791006Y-24619920D01*
X26790106Y-24625987D01*
X26788616Y-24631937D01*
X26786549Y-24637712D01*
X26783927Y-24643256D01*
X26780774Y-24648517D01*
X26777120Y-24653444D01*
X26773001Y-24657988D01*
X26260349Y-25170640D01*
X26255805Y-25174759D01*
X26250878Y-25178413D01*
X26245617Y-25181566D01*
X26240073Y-25184188D01*
X26234298Y-25186255D01*
X26228348Y-25187745D01*
X26222281Y-25188645D01*
X26216155Y-25188946D01*
X26210029Y-25188645D01*
X26203962Y-25187745D01*
X26198012Y-25186255D01*
X26192237Y-25184188D01*
X26186693Y-25181566D01*
X26181432Y-25178413D01*
X26176505Y-25174759D01*
X26171961Y-25170640D01*
X26083573Y-25082252D01*
X26079454Y-25077708D01*
X26075800Y-25072781D01*
X26072647Y-25067520D01*
X26070025Y-25061976D01*
X26067958Y-25056201D01*
X26066468Y-25050251D01*
X26065568Y-25044184D01*
X26065267Y-25038058D01*
X26065568Y-25031932D01*
X26066468Y-25025865D01*
X26067958Y-25019915D01*
X26070025Y-25014140D01*
X26072647Y-25008596D01*
X26075800Y-25003335D01*
X26079454Y-24998408D01*
X26083573Y-24993864D01*
X26596225Y-24481212D01*
X26600769Y-24477093D01*
X26605696Y-24473439D01*
X26610957Y-24470286D01*
X26616501Y-24467664D01*
X26622276Y-24465597D01*
X26628226Y-24464107D01*
X26634293Y-24463207D01*
X26640419Y-24462906D01*
X26646545Y-24463207D01*
X26646545Y-24463207D01*
G37*
D16*
X26428287Y-24825926D03*
D14*
G36*
X26292992Y-24109654D02*
G01*
X26299059Y-24110554D01*
X26305009Y-24112044D01*
X26310784Y-24114111D01*
X26316328Y-24116733D01*
X26321589Y-24119886D01*
X26326516Y-24123540D01*
X26331060Y-24127659D01*
X26419448Y-24216047D01*
X26423567Y-24220591D01*
X26427221Y-24225518D01*
X26430374Y-24230779D01*
X26432996Y-24236323D01*
X26435063Y-24242098D01*
X26436553Y-24248048D01*
X26437453Y-24254115D01*
X26437754Y-24260241D01*
X26437453Y-24266367D01*
X26436553Y-24272434D01*
X26435063Y-24278384D01*
X26432996Y-24284159D01*
X26430374Y-24289703D01*
X26427221Y-24294964D01*
X26423567Y-24299891D01*
X26419448Y-24304435D01*
X25906796Y-24817087D01*
X25902252Y-24821206D01*
X25897325Y-24824860D01*
X25892064Y-24828013D01*
X25886520Y-24830635D01*
X25880745Y-24832702D01*
X25874795Y-24834192D01*
X25868728Y-24835092D01*
X25862602Y-24835393D01*
X25856476Y-24835092D01*
X25850409Y-24834192D01*
X25844459Y-24832702D01*
X25838684Y-24830635D01*
X25833140Y-24828013D01*
X25827879Y-24824860D01*
X25822952Y-24821206D01*
X25818408Y-24817087D01*
X25730020Y-24728699D01*
X25725901Y-24724155D01*
X25722247Y-24719228D01*
X25719094Y-24713967D01*
X25716472Y-24708423D01*
X25714405Y-24702648D01*
X25712915Y-24696698D01*
X25712015Y-24690631D01*
X25711714Y-24684505D01*
X25712015Y-24678379D01*
X25712915Y-24672312D01*
X25714405Y-24666362D01*
X25716472Y-24660587D01*
X25719094Y-24655043D01*
X25722247Y-24649782D01*
X25725901Y-24644855D01*
X25730020Y-24640311D01*
X26242672Y-24127659D01*
X26247216Y-24123540D01*
X26252143Y-24119886D01*
X26257404Y-24116733D01*
X26262948Y-24114111D01*
X26268723Y-24112044D01*
X26274673Y-24110554D01*
X26280740Y-24109654D01*
X26286866Y-24109353D01*
X26292992Y-24109654D01*
X26292992Y-24109654D01*
G37*
D16*
X26074734Y-24472373D03*
D14*
G36*
X25939439Y-23756100D02*
G01*
X25945506Y-23757000D01*
X25951456Y-23758490D01*
X25957231Y-23760557D01*
X25962775Y-23763179D01*
X25968036Y-23766332D01*
X25972963Y-23769986D01*
X25977507Y-23774105D01*
X26065895Y-23862493D01*
X26070014Y-23867037D01*
X26073668Y-23871964D01*
X26076821Y-23877225D01*
X26079443Y-23882769D01*
X26081510Y-23888544D01*
X26083000Y-23894494D01*
X26083900Y-23900561D01*
X26084201Y-23906687D01*
X26083900Y-23912813D01*
X26083000Y-23918880D01*
X26081510Y-23924830D01*
X26079443Y-23930605D01*
X26076821Y-23936149D01*
X26073668Y-23941410D01*
X26070014Y-23946337D01*
X26065895Y-23950881D01*
X25553243Y-24463533D01*
X25548699Y-24467652D01*
X25543772Y-24471306D01*
X25538511Y-24474459D01*
X25532967Y-24477081D01*
X25527192Y-24479148D01*
X25521242Y-24480638D01*
X25515175Y-24481538D01*
X25509049Y-24481839D01*
X25502923Y-24481538D01*
X25496856Y-24480638D01*
X25490906Y-24479148D01*
X25485131Y-24477081D01*
X25479587Y-24474459D01*
X25474326Y-24471306D01*
X25469399Y-24467652D01*
X25464855Y-24463533D01*
X25376467Y-24375145D01*
X25372348Y-24370601D01*
X25368694Y-24365674D01*
X25365541Y-24360413D01*
X25362919Y-24354869D01*
X25360852Y-24349094D01*
X25359362Y-24343144D01*
X25358462Y-24337077D01*
X25358161Y-24330951D01*
X25358462Y-24324825D01*
X25359362Y-24318758D01*
X25360852Y-24312808D01*
X25362919Y-24307033D01*
X25365541Y-24301489D01*
X25368694Y-24296228D01*
X25372348Y-24291301D01*
X25376467Y-24286757D01*
X25889119Y-23774105D01*
X25893663Y-23769986D01*
X25898590Y-23766332D01*
X25903851Y-23763179D01*
X25909395Y-23760557D01*
X25915170Y-23758490D01*
X25921120Y-23757000D01*
X25927187Y-23756100D01*
X25933313Y-23755799D01*
X25939439Y-23756100D01*
X25939439Y-23756100D01*
G37*
D16*
X25721181Y-24118819D03*
D14*
G36*
X25585885Y-23402547D02*
G01*
X25591952Y-23403447D01*
X25597902Y-23404937D01*
X25603677Y-23407004D01*
X25609221Y-23409626D01*
X25614482Y-23412779D01*
X25619409Y-23416433D01*
X25623953Y-23420552D01*
X25712341Y-23508940D01*
X25716460Y-23513484D01*
X25720114Y-23518411D01*
X25723267Y-23523672D01*
X25725889Y-23529216D01*
X25727956Y-23534991D01*
X25729446Y-23540941D01*
X25730346Y-23547008D01*
X25730647Y-23553134D01*
X25730346Y-23559260D01*
X25729446Y-23565327D01*
X25727956Y-23571277D01*
X25725889Y-23577052D01*
X25723267Y-23582596D01*
X25720114Y-23587857D01*
X25716460Y-23592784D01*
X25712341Y-23597328D01*
X25199689Y-24109980D01*
X25195145Y-24114099D01*
X25190218Y-24117753D01*
X25184957Y-24120906D01*
X25179413Y-24123528D01*
X25173638Y-24125595D01*
X25167688Y-24127085D01*
X25161621Y-24127985D01*
X25155495Y-24128286D01*
X25149369Y-24127985D01*
X25143302Y-24127085D01*
X25137352Y-24125595D01*
X25131577Y-24123528D01*
X25126033Y-24120906D01*
X25120772Y-24117753D01*
X25115845Y-24114099D01*
X25111301Y-24109980D01*
X25022913Y-24021592D01*
X25018794Y-24017048D01*
X25015140Y-24012121D01*
X25011987Y-24006860D01*
X25009365Y-24001316D01*
X25007298Y-23995541D01*
X25005808Y-23989591D01*
X25004908Y-23983524D01*
X25004607Y-23977398D01*
X25004908Y-23971272D01*
X25005808Y-23965205D01*
X25007298Y-23959255D01*
X25009365Y-23953480D01*
X25011987Y-23947936D01*
X25015140Y-23942675D01*
X25018794Y-23937748D01*
X25022913Y-23933204D01*
X25535565Y-23420552D01*
X25540109Y-23416433D01*
X25545036Y-23412779D01*
X25550297Y-23409626D01*
X25555841Y-23407004D01*
X25561616Y-23404937D01*
X25567566Y-23403447D01*
X25573633Y-23402547D01*
X25579759Y-23402246D01*
X25585885Y-23402547D01*
X25585885Y-23402547D01*
G37*
D16*
X25367627Y-23765266D03*
D14*
G36*
X25232332Y-23048994D02*
G01*
X25238399Y-23049894D01*
X25244349Y-23051384D01*
X25250124Y-23053451D01*
X25255668Y-23056073D01*
X25260929Y-23059226D01*
X25265856Y-23062880D01*
X25270400Y-23066999D01*
X25358788Y-23155387D01*
X25362907Y-23159931D01*
X25366561Y-23164858D01*
X25369714Y-23170119D01*
X25372336Y-23175663D01*
X25374403Y-23181438D01*
X25375893Y-23187388D01*
X25376793Y-23193455D01*
X25377094Y-23199581D01*
X25376793Y-23205707D01*
X25375893Y-23211774D01*
X25374403Y-23217724D01*
X25372336Y-23223499D01*
X25369714Y-23229043D01*
X25366561Y-23234304D01*
X25362907Y-23239231D01*
X25358788Y-23243775D01*
X24846136Y-23756427D01*
X24841592Y-23760546D01*
X24836665Y-23764200D01*
X24831404Y-23767353D01*
X24825860Y-23769975D01*
X24820085Y-23772042D01*
X24814135Y-23773532D01*
X24808068Y-23774432D01*
X24801942Y-23774733D01*
X24795816Y-23774432D01*
X24789749Y-23773532D01*
X24783799Y-23772042D01*
X24778024Y-23769975D01*
X24772480Y-23767353D01*
X24767219Y-23764200D01*
X24762292Y-23760546D01*
X24757748Y-23756427D01*
X24669360Y-23668039D01*
X24665241Y-23663495D01*
X24661587Y-23658568D01*
X24658434Y-23653307D01*
X24655812Y-23647763D01*
X24653745Y-23641988D01*
X24652255Y-23636038D01*
X24651355Y-23629971D01*
X24651054Y-23623845D01*
X24651355Y-23617719D01*
X24652255Y-23611652D01*
X24653745Y-23605702D01*
X24655812Y-23599927D01*
X24658434Y-23594383D01*
X24661587Y-23589122D01*
X24665241Y-23584195D01*
X24669360Y-23579651D01*
X25182012Y-23066999D01*
X25186556Y-23062880D01*
X25191483Y-23059226D01*
X25196744Y-23056073D01*
X25202288Y-23053451D01*
X25208063Y-23051384D01*
X25214013Y-23049894D01*
X25220080Y-23048994D01*
X25226206Y-23048693D01*
X25232332Y-23048994D01*
X25232332Y-23048994D01*
G37*
D16*
X25014074Y-23411713D03*
D14*
G36*
X23499920Y-23048994D02*
G01*
X23505987Y-23049894D01*
X23511937Y-23051384D01*
X23517712Y-23053451D01*
X23523256Y-23056073D01*
X23528517Y-23059226D01*
X23533444Y-23062880D01*
X23537988Y-23066999D01*
X24050640Y-23579651D01*
X24054759Y-23584195D01*
X24058413Y-23589122D01*
X24061566Y-23594383D01*
X24064188Y-23599927D01*
X24066255Y-23605702D01*
X24067745Y-23611652D01*
X24068645Y-23617719D01*
X24068946Y-23623845D01*
X24068645Y-23629971D01*
X24067745Y-23636038D01*
X24066255Y-23641988D01*
X24064188Y-23647763D01*
X24061566Y-23653307D01*
X24058413Y-23658568D01*
X24054759Y-23663495D01*
X24050640Y-23668039D01*
X23962252Y-23756427D01*
X23957708Y-23760546D01*
X23952781Y-23764200D01*
X23947520Y-23767353D01*
X23941976Y-23769975D01*
X23936201Y-23772042D01*
X23930251Y-23773532D01*
X23924184Y-23774432D01*
X23918058Y-23774733D01*
X23911932Y-23774432D01*
X23905865Y-23773532D01*
X23899915Y-23772042D01*
X23894140Y-23769975D01*
X23888596Y-23767353D01*
X23883335Y-23764200D01*
X23878408Y-23760546D01*
X23873864Y-23756427D01*
X23361212Y-23243775D01*
X23357093Y-23239231D01*
X23353439Y-23234304D01*
X23350286Y-23229043D01*
X23347664Y-23223499D01*
X23345597Y-23217724D01*
X23344107Y-23211774D01*
X23343207Y-23205707D01*
X23342906Y-23199581D01*
X23343207Y-23193455D01*
X23344107Y-23187388D01*
X23345597Y-23181438D01*
X23347664Y-23175663D01*
X23350286Y-23170119D01*
X23353439Y-23164858D01*
X23357093Y-23159931D01*
X23361212Y-23155387D01*
X23449600Y-23066999D01*
X23454144Y-23062880D01*
X23459071Y-23059226D01*
X23464332Y-23056073D01*
X23469876Y-23053451D01*
X23475651Y-23051384D01*
X23481601Y-23049894D01*
X23487668Y-23048994D01*
X23493794Y-23048693D01*
X23499920Y-23048994D01*
X23499920Y-23048994D01*
G37*
D16*
X23705926Y-23411713D03*
D14*
G36*
X23146367Y-23402547D02*
G01*
X23152434Y-23403447D01*
X23158384Y-23404937D01*
X23164159Y-23407004D01*
X23169703Y-23409626D01*
X23174964Y-23412779D01*
X23179891Y-23416433D01*
X23184435Y-23420552D01*
X23697087Y-23933204D01*
X23701206Y-23937748D01*
X23704860Y-23942675D01*
X23708013Y-23947936D01*
X23710635Y-23953480D01*
X23712702Y-23959255D01*
X23714192Y-23965205D01*
X23715092Y-23971272D01*
X23715393Y-23977398D01*
X23715092Y-23983524D01*
X23714192Y-23989591D01*
X23712702Y-23995541D01*
X23710635Y-24001316D01*
X23708013Y-24006860D01*
X23704860Y-24012121D01*
X23701206Y-24017048D01*
X23697087Y-24021592D01*
X23608699Y-24109980D01*
X23604155Y-24114099D01*
X23599228Y-24117753D01*
X23593967Y-24120906D01*
X23588423Y-24123528D01*
X23582648Y-24125595D01*
X23576698Y-24127085D01*
X23570631Y-24127985D01*
X23564505Y-24128286D01*
X23558379Y-24127985D01*
X23552312Y-24127085D01*
X23546362Y-24125595D01*
X23540587Y-24123528D01*
X23535043Y-24120906D01*
X23529782Y-24117753D01*
X23524855Y-24114099D01*
X23520311Y-24109980D01*
X23007659Y-23597328D01*
X23003540Y-23592784D01*
X22999886Y-23587857D01*
X22996733Y-23582596D01*
X22994111Y-23577052D01*
X22992044Y-23571277D01*
X22990554Y-23565327D01*
X22989654Y-23559260D01*
X22989353Y-23553134D01*
X22989654Y-23547008D01*
X22990554Y-23540941D01*
X22992044Y-23534991D01*
X22994111Y-23529216D01*
X22996733Y-23523672D01*
X22999886Y-23518411D01*
X23003540Y-23513484D01*
X23007659Y-23508940D01*
X23096047Y-23420552D01*
X23100591Y-23416433D01*
X23105518Y-23412779D01*
X23110779Y-23409626D01*
X23116323Y-23407004D01*
X23122098Y-23404937D01*
X23128048Y-23403447D01*
X23134115Y-23402547D01*
X23140241Y-23402246D01*
X23146367Y-23402547D01*
X23146367Y-23402547D01*
G37*
D16*
X23352373Y-23765266D03*
D14*
G36*
X22792813Y-23756100D02*
G01*
X22798880Y-23757000D01*
X22804830Y-23758490D01*
X22810605Y-23760557D01*
X22816149Y-23763179D01*
X22821410Y-23766332D01*
X22826337Y-23769986D01*
X22830881Y-23774105D01*
X23343533Y-24286757D01*
X23347652Y-24291301D01*
X23351306Y-24296228D01*
X23354459Y-24301489D01*
X23357081Y-24307033D01*
X23359148Y-24312808D01*
X23360638Y-24318758D01*
X23361538Y-24324825D01*
X23361839Y-24330951D01*
X23361538Y-24337077D01*
X23360638Y-24343144D01*
X23359148Y-24349094D01*
X23357081Y-24354869D01*
X23354459Y-24360413D01*
X23351306Y-24365674D01*
X23347652Y-24370601D01*
X23343533Y-24375145D01*
X23255145Y-24463533D01*
X23250601Y-24467652D01*
X23245674Y-24471306D01*
X23240413Y-24474459D01*
X23234869Y-24477081D01*
X23229094Y-24479148D01*
X23223144Y-24480638D01*
X23217077Y-24481538D01*
X23210951Y-24481839D01*
X23204825Y-24481538D01*
X23198758Y-24480638D01*
X23192808Y-24479148D01*
X23187033Y-24477081D01*
X23181489Y-24474459D01*
X23176228Y-24471306D01*
X23171301Y-24467652D01*
X23166757Y-24463533D01*
X22654105Y-23950881D01*
X22649986Y-23946337D01*
X22646332Y-23941410D01*
X22643179Y-23936149D01*
X22640557Y-23930605D01*
X22638490Y-23924830D01*
X22637000Y-23918880D01*
X22636100Y-23912813D01*
X22635799Y-23906687D01*
X22636100Y-23900561D01*
X22637000Y-23894494D01*
X22638490Y-23888544D01*
X22640557Y-23882769D01*
X22643179Y-23877225D01*
X22646332Y-23871964D01*
X22649986Y-23867037D01*
X22654105Y-23862493D01*
X22742493Y-23774105D01*
X22747037Y-23769986D01*
X22751964Y-23766332D01*
X22757225Y-23763179D01*
X22762769Y-23760557D01*
X22768544Y-23758490D01*
X22774494Y-23757000D01*
X22780561Y-23756100D01*
X22786687Y-23755799D01*
X22792813Y-23756100D01*
X22792813Y-23756100D01*
G37*
D16*
X22998819Y-24118819D03*
D14*
G36*
X22439260Y-24109654D02*
G01*
X22445327Y-24110554D01*
X22451277Y-24112044D01*
X22457052Y-24114111D01*
X22462596Y-24116733D01*
X22467857Y-24119886D01*
X22472784Y-24123540D01*
X22477328Y-24127659D01*
X22989980Y-24640311D01*
X22994099Y-24644855D01*
X22997753Y-24649782D01*
X23000906Y-24655043D01*
X23003528Y-24660587D01*
X23005595Y-24666362D01*
X23007085Y-24672312D01*
X23007985Y-24678379D01*
X23008286Y-24684505D01*
X23007985Y-24690631D01*
X23007085Y-24696698D01*
X23005595Y-24702648D01*
X23003528Y-24708423D01*
X23000906Y-24713967D01*
X22997753Y-24719228D01*
X22994099Y-24724155D01*
X22989980Y-24728699D01*
X22901592Y-24817087D01*
X22897048Y-24821206D01*
X22892121Y-24824860D01*
X22886860Y-24828013D01*
X22881316Y-24830635D01*
X22875541Y-24832702D01*
X22869591Y-24834192D01*
X22863524Y-24835092D01*
X22857398Y-24835393D01*
X22851272Y-24835092D01*
X22845205Y-24834192D01*
X22839255Y-24832702D01*
X22833480Y-24830635D01*
X22827936Y-24828013D01*
X22822675Y-24824860D01*
X22817748Y-24821206D01*
X22813204Y-24817087D01*
X22300552Y-24304435D01*
X22296433Y-24299891D01*
X22292779Y-24294964D01*
X22289626Y-24289703D01*
X22287004Y-24284159D01*
X22284937Y-24278384D01*
X22283447Y-24272434D01*
X22282547Y-24266367D01*
X22282246Y-24260241D01*
X22282547Y-24254115D01*
X22283447Y-24248048D01*
X22284937Y-24242098D01*
X22287004Y-24236323D01*
X22289626Y-24230779D01*
X22292779Y-24225518D01*
X22296433Y-24220591D01*
X22300552Y-24216047D01*
X22388940Y-24127659D01*
X22393484Y-24123540D01*
X22398411Y-24119886D01*
X22403672Y-24116733D01*
X22409216Y-24114111D01*
X22414991Y-24112044D01*
X22420941Y-24110554D01*
X22427008Y-24109654D01*
X22433134Y-24109353D01*
X22439260Y-24109654D01*
X22439260Y-24109654D01*
G37*
D16*
X22645266Y-24472373D03*
D14*
G36*
X22085707Y-24463207D02*
G01*
X22091774Y-24464107D01*
X22097724Y-24465597D01*
X22103499Y-24467664D01*
X22109043Y-24470286D01*
X22114304Y-24473439D01*
X22119231Y-24477093D01*
X22123775Y-24481212D01*
X22636427Y-24993864D01*
X22640546Y-24998408D01*
X22644200Y-25003335D01*
X22647353Y-25008596D01*
X22649975Y-25014140D01*
X22652042Y-25019915D01*
X22653532Y-25025865D01*
X22654432Y-25031932D01*
X22654733Y-25038058D01*
X22654432Y-25044184D01*
X22653532Y-25050251D01*
X22652042Y-25056201D01*
X22649975Y-25061976D01*
X22647353Y-25067520D01*
X22644200Y-25072781D01*
X22640546Y-25077708D01*
X22636427Y-25082252D01*
X22548039Y-25170640D01*
X22543495Y-25174759D01*
X22538568Y-25178413D01*
X22533307Y-25181566D01*
X22527763Y-25184188D01*
X22521988Y-25186255D01*
X22516038Y-25187745D01*
X22509971Y-25188645D01*
X22503845Y-25188946D01*
X22497719Y-25188645D01*
X22491652Y-25187745D01*
X22485702Y-25186255D01*
X22479927Y-25184188D01*
X22474383Y-25181566D01*
X22469122Y-25178413D01*
X22464195Y-25174759D01*
X22459651Y-25170640D01*
X21946999Y-24657988D01*
X21942880Y-24653444D01*
X21939226Y-24648517D01*
X21936073Y-24643256D01*
X21933451Y-24637712D01*
X21931384Y-24631937D01*
X21929894Y-24625987D01*
X21928994Y-24619920D01*
X21928693Y-24613794D01*
X21928994Y-24607668D01*
X21929894Y-24601601D01*
X21931384Y-24595651D01*
X21933451Y-24589876D01*
X21936073Y-24584332D01*
X21939226Y-24579071D01*
X21942880Y-24574144D01*
X21946999Y-24569600D01*
X22035387Y-24481212D01*
X22039931Y-24477093D01*
X22044858Y-24473439D01*
X22050119Y-24470286D01*
X22055663Y-24467664D01*
X22061438Y-24465597D01*
X22067388Y-24464107D01*
X22073455Y-24463207D01*
X22079581Y-24462906D01*
X22085707Y-24463207D01*
X22085707Y-24463207D01*
G37*
D16*
X22291713Y-24825926D03*
D17*
X26350000Y-28420000D03*
D18*
X20320000Y-22490000D03*
X20350000Y-25840000D03*
D17*
X22020000Y-20870000D03*
D19*
X25610000Y-29290000D02*
X26350000Y-28550000D01*
X20220000Y-29250000D02*
X20180000Y-29290000D01*
X20180000Y-29290000D02*
X25610000Y-29290000D01*
X20220000Y-28900000D02*
X20220000Y-29250000D01*
X25721181Y-26841181D02*
X24360000Y-25480000D01*
X26350000Y-27470000D02*
X26350000Y-28420000D01*
X25721181Y-26841181D02*
X26350000Y-27470000D01*
X19870000Y-29290000D02*
X20180000Y-29290000D01*
X19480000Y-28900000D02*
X19870000Y-29290000D01*
X19480000Y-19560000D02*
X19480000Y-28900000D01*
X19610000Y-19430000D02*
X19480000Y-19560000D01*
X20170000Y-19430000D02*
X19610000Y-19430000D01*
X21260000Y-19820000D02*
X21260000Y-19370000D01*
X20220000Y-20860000D02*
X21260000Y-19820000D01*
X20220000Y-22470000D02*
X20220000Y-20860000D01*
X20260000Y-22510000D02*
X20220000Y-22470000D01*
X20260000Y-23420000D02*
X20260000Y-22510000D01*
X20170000Y-27510000D02*
X20300000Y-27510000D01*
X20300000Y-27510000D02*
X21290000Y-28500000D01*
X20170000Y-26730000D02*
X20170000Y-27510000D01*
X20350000Y-26550000D02*
X20170000Y-26730000D01*
X20350000Y-25840000D02*
X20350000Y-26550000D01*
X20680000Y-24920000D02*
X20420000Y-24920000D01*
X22645266Y-26487627D02*
X22262893Y-26870000D01*
X21260000Y-26220000D02*
X21260000Y-25500000D01*
X21910000Y-26870000D02*
X21260000Y-26220000D01*
X21260000Y-25500000D02*
X20680000Y-24920000D01*
X22262893Y-26870000D02*
X21910000Y-26870000D01*
X23705926Y-27584074D02*
X22790000Y-28500000D01*
X23705926Y-27548287D02*
X23705926Y-27584074D01*
X22760000Y-20130000D02*
X22020000Y-20870000D01*
X22760000Y-19370000D02*
X22760000Y-20130000D01*
X22020000Y-20940000D02*
X22020000Y-20870000D01*
X24290000Y-23210000D02*
X22020000Y-20940000D01*
X24812361Y-23210000D02*
X24290000Y-23210000D01*
X25014074Y-23411713D02*
X24812361Y-23210000D01*
X21430000Y-24850000D02*
X21430000Y-23440000D01*
X21840000Y-25260000D02*
X21430000Y-24850000D01*
X21840000Y-25682361D02*
X21840000Y-25260000D01*
X21430000Y-23440000D02*
X21860000Y-23010000D01*
X22291713Y-26134074D02*
X21840000Y-25682361D01*
X26970000Y-24284213D02*
X26428287Y-24825926D01*
X26970000Y-20380000D02*
X26970000Y-24284213D01*
X26350000Y-19760000D02*
X26970000Y-20380000D01*
X26350000Y-19670000D02*
X26350000Y-19760000D01*
X26430000Y-22770000D02*
X25220000Y-21560000D01*
X26430000Y-24117107D02*
X26430000Y-22770000D01*
X26074734Y-24472373D02*
X26430000Y-24117107D01*
X24170000Y-19880000D02*
X24170000Y-19670000D01*
X23910000Y-20140000D02*
X24170000Y-19880000D01*
X23910000Y-22060000D02*
X23910000Y-20140000D01*
X25367627Y-23765266D02*
X25730000Y-23402893D01*
X24530000Y-22680000D02*
X23910000Y-22060000D01*
X25730000Y-23402893D02*
X25730000Y-22970000D01*
X25440000Y-22680000D02*
X24530000Y-22680000D01*
X25730000Y-22970000D02*
X25440000Y-22680000D01*
M02*
