G04 #@! TF.GenerationSoftware,KiCad,Pcbnew,(5.1.2-1)-1*
G04 #@! TF.CreationDate,2019-07-19T11:43:15-07:00*
G04 #@! TF.ProjectId,class v3 - programmer,636c6173-7320-4763-9320-2d2070726f67,rev?*
G04 #@! TF.SameCoordinates,Original*
G04 #@! TF.FileFunction,Copper,L1,Top*
G04 #@! TF.FilePolarity,Positive*
%FSLAX46Y46*%
G04 Gerber Fmt 4.6, Leading zero omitted, Abs format (unit mm)*
G04 Created by KiCad (PCBNEW (5.1.2-1)-1) date 2019-07-19 11:43:15*
%MOMM*%
%LPD*%
G04 APERTURE LIST*
%ADD10C,1.600000*%
%ADD11R,1.000000X3.150000*%
%ADD12C,0.250000*%
G04 APERTURE END LIST*
D10*
X120600000Y-89040000D03*
X125090000Y-85700000D03*
X120760000Y-86900000D03*
X122910000Y-85700000D03*
X125090000Y-94450000D03*
X123960000Y-87590000D03*
D11*
X133010000Y-87675000D03*
X133010000Y-92725000D03*
X130470000Y-87675000D03*
X130470000Y-92725000D03*
X127930000Y-87675000D03*
X127930000Y-92725000D03*
D10*
X114990000Y-85720000D03*
X113860000Y-87610000D03*
X110500000Y-89060000D03*
X114990000Y-94470000D03*
X112810000Y-85720000D03*
X110660000Y-86920000D03*
D12*
X133010000Y-92685000D02*
X133010000Y-94450000D01*
X133010000Y-94450000D02*
X132610000Y-94850000D01*
X132610000Y-94850000D02*
X125490000Y-94850000D01*
X125490000Y-94850000D02*
X125090000Y-94450000D01*
X120760000Y-87110000D02*
X120760000Y-86900000D01*
X124130000Y-90480000D02*
X120760000Y-87110000D01*
X129950000Y-90480000D02*
X124130000Y-90480000D01*
X130470000Y-92685000D02*
X130470000Y-91000000D01*
X130470000Y-91000000D02*
X129950000Y-90480000D01*
X124245000Y-92685000D02*
X120600000Y-89040000D01*
X127930000Y-92685000D02*
X124245000Y-92685000D01*
X125520000Y-85270000D02*
X125090000Y-85700000D01*
X127050000Y-85270000D02*
X125520000Y-85270000D01*
X133010000Y-87635000D02*
X133010000Y-85840000D01*
X133010000Y-85840000D02*
X132440000Y-85270000D01*
X132440000Y-85270000D02*
X126870000Y-85270000D01*
X123960000Y-87590000D02*
X127885000Y-87590000D01*
X127885000Y-87590000D02*
X127930000Y-87635000D01*
X122910000Y-85700000D02*
X122380000Y-86230000D01*
X124420000Y-89880000D02*
X129970000Y-89880000D01*
X130470000Y-89380000D02*
X130470000Y-87635000D01*
X129970000Y-89880000D02*
X130470000Y-89380000D01*
X122380000Y-86230000D02*
X122380000Y-87840000D01*
X122380000Y-87840000D02*
X124420000Y-89880000D01*
M02*
