G04 #@! TF.GenerationSoftware,KiCad,Pcbnew,(5.1.2-1)-1*
G04 #@! TF.CreationDate,2019-07-26T12:58:34-07:00*
G04 #@! TF.ProjectId,DemonSeed,44656d6f-6e53-4656-9564-2e6b69636164,rev?*
G04 #@! TF.SameCoordinates,Original*
G04 #@! TF.FileFunction,Soldermask,Top*
G04 #@! TF.FilePolarity,Negative*
%FSLAX46Y46*%
G04 Gerber Fmt 4.6, Leading zero omitted, Abs format (unit mm)*
G04 Created by KiCad (PCBNEW (5.1.2-1)-1) date 2019-07-26 12:58:34*
%MOMM*%
%LPD*%
G04 APERTURE LIST*
%ADD10R,0.700000X0.600000*%
%ADD11C,1.500000*%
%ADD12R,0.900000X0.500000*%
%ADD13R,0.500000X0.900000*%
%ADD14C,0.100000*%
%ADD15C,2.600000*%
%ADD16C,0.250000*%
G04 APERTURE END LIST*
D10*
X102820000Y-85480000D03*
X102820000Y-86880000D03*
X102820000Y-94960000D03*
X102820000Y-93560000D03*
D11*
X104670000Y-86920000D03*
X109000000Y-94470000D03*
D12*
X102910000Y-90970000D03*
X102910000Y-89470000D03*
D13*
X103910000Y-85420000D03*
X105410000Y-85420000D03*
X105440000Y-94550000D03*
X103940000Y-94550000D03*
D11*
X104510000Y-89060000D03*
X107870000Y-87610000D03*
X109000000Y-85720000D03*
X106820000Y-85720000D03*
D14*
G36*
X107034504Y-89796280D02*
G01*
X107058773Y-89799880D01*
X107082571Y-89805841D01*
X107105671Y-89814106D01*
X107127849Y-89824596D01*
X107148893Y-89837209D01*
X107168598Y-89851823D01*
X107186777Y-89868299D01*
X108671701Y-91353223D01*
X108688177Y-91371402D01*
X108702791Y-91391107D01*
X108715404Y-91412151D01*
X108725894Y-91434329D01*
X108734159Y-91457429D01*
X108740120Y-91481227D01*
X108743720Y-91505496D01*
X108744924Y-91530000D01*
X108743720Y-91554504D01*
X108740120Y-91578773D01*
X108734159Y-91602571D01*
X108725894Y-91625671D01*
X108715404Y-91647849D01*
X108702791Y-91668893D01*
X108688177Y-91688598D01*
X108671701Y-91706777D01*
X107186777Y-93191701D01*
X107168598Y-93208177D01*
X107148893Y-93222791D01*
X107127849Y-93235404D01*
X107105671Y-93245894D01*
X107082571Y-93254159D01*
X107058773Y-93260120D01*
X107034504Y-93263720D01*
X107010000Y-93264924D01*
X106985496Y-93263720D01*
X106961227Y-93260120D01*
X106937429Y-93254159D01*
X106914329Y-93245894D01*
X106892151Y-93235404D01*
X106871107Y-93222791D01*
X106851402Y-93208177D01*
X106833223Y-93191701D01*
X105348299Y-91706777D01*
X105331823Y-91688598D01*
X105317209Y-91668893D01*
X105304596Y-91647849D01*
X105294106Y-91625671D01*
X105285841Y-91602571D01*
X105279880Y-91578773D01*
X105276280Y-91554504D01*
X105275076Y-91530000D01*
X105276280Y-91505496D01*
X105279880Y-91481227D01*
X105285841Y-91457429D01*
X105294106Y-91434329D01*
X105304596Y-91412151D01*
X105317209Y-91391107D01*
X105331823Y-91371402D01*
X105348299Y-91353223D01*
X106833223Y-89868299D01*
X106851402Y-89851823D01*
X106871107Y-89837209D01*
X106892151Y-89824596D01*
X106914329Y-89814106D01*
X106937429Y-89805841D01*
X106961227Y-89799880D01*
X106985496Y-89796280D01*
X107010000Y-89795076D01*
X107034504Y-89796280D01*
X107034504Y-89796280D01*
G37*
D15*
X107010000Y-91530000D03*
D14*
G36*
X105159971Y-91821355D02*
G01*
X105166038Y-91822255D01*
X105171988Y-91823745D01*
X105177763Y-91825812D01*
X105183307Y-91828434D01*
X105188568Y-91831587D01*
X105193495Y-91835241D01*
X105198039Y-91839360D01*
X105286427Y-91927748D01*
X105290546Y-91932292D01*
X105294200Y-91937219D01*
X105297353Y-91942480D01*
X105299975Y-91948024D01*
X105302042Y-91953799D01*
X105303532Y-91959749D01*
X105304432Y-91965816D01*
X105304733Y-91971942D01*
X105304432Y-91978068D01*
X105303532Y-91984135D01*
X105302042Y-91990085D01*
X105299975Y-91995860D01*
X105297353Y-92001404D01*
X105294200Y-92006665D01*
X105290546Y-92011592D01*
X105286427Y-92016136D01*
X104773775Y-92528788D01*
X104769231Y-92532907D01*
X104764304Y-92536561D01*
X104759043Y-92539714D01*
X104753499Y-92542336D01*
X104747724Y-92544403D01*
X104741774Y-92545893D01*
X104735707Y-92546793D01*
X104729581Y-92547094D01*
X104723455Y-92546793D01*
X104717388Y-92545893D01*
X104711438Y-92544403D01*
X104705663Y-92542336D01*
X104700119Y-92539714D01*
X104694858Y-92536561D01*
X104689931Y-92532907D01*
X104685387Y-92528788D01*
X104596999Y-92440400D01*
X104592880Y-92435856D01*
X104589226Y-92430929D01*
X104586073Y-92425668D01*
X104583451Y-92420124D01*
X104581384Y-92414349D01*
X104579894Y-92408399D01*
X104578994Y-92402332D01*
X104578693Y-92396206D01*
X104578994Y-92390080D01*
X104579894Y-92384013D01*
X104581384Y-92378063D01*
X104583451Y-92372288D01*
X104586073Y-92366744D01*
X104589226Y-92361483D01*
X104592880Y-92356556D01*
X104596999Y-92352012D01*
X105109651Y-91839360D01*
X105114195Y-91835241D01*
X105119122Y-91831587D01*
X105124383Y-91828434D01*
X105129927Y-91825812D01*
X105135702Y-91823745D01*
X105141652Y-91822255D01*
X105147719Y-91821355D01*
X105153845Y-91821054D01*
X105159971Y-91821355D01*
X105159971Y-91821355D01*
G37*
D16*
X104941713Y-92184074D03*
D14*
G36*
X105513524Y-92174908D02*
G01*
X105519591Y-92175808D01*
X105525541Y-92177298D01*
X105531316Y-92179365D01*
X105536860Y-92181987D01*
X105542121Y-92185140D01*
X105547048Y-92188794D01*
X105551592Y-92192913D01*
X105639980Y-92281301D01*
X105644099Y-92285845D01*
X105647753Y-92290772D01*
X105650906Y-92296033D01*
X105653528Y-92301577D01*
X105655595Y-92307352D01*
X105657085Y-92313302D01*
X105657985Y-92319369D01*
X105658286Y-92325495D01*
X105657985Y-92331621D01*
X105657085Y-92337688D01*
X105655595Y-92343638D01*
X105653528Y-92349413D01*
X105650906Y-92354957D01*
X105647753Y-92360218D01*
X105644099Y-92365145D01*
X105639980Y-92369689D01*
X105127328Y-92882341D01*
X105122784Y-92886460D01*
X105117857Y-92890114D01*
X105112596Y-92893267D01*
X105107052Y-92895889D01*
X105101277Y-92897956D01*
X105095327Y-92899446D01*
X105089260Y-92900346D01*
X105083134Y-92900647D01*
X105077008Y-92900346D01*
X105070941Y-92899446D01*
X105064991Y-92897956D01*
X105059216Y-92895889D01*
X105053672Y-92893267D01*
X105048411Y-92890114D01*
X105043484Y-92886460D01*
X105038940Y-92882341D01*
X104950552Y-92793953D01*
X104946433Y-92789409D01*
X104942779Y-92784482D01*
X104939626Y-92779221D01*
X104937004Y-92773677D01*
X104934937Y-92767902D01*
X104933447Y-92761952D01*
X104932547Y-92755885D01*
X104932246Y-92749759D01*
X104932547Y-92743633D01*
X104933447Y-92737566D01*
X104934937Y-92731616D01*
X104937004Y-92725841D01*
X104939626Y-92720297D01*
X104942779Y-92715036D01*
X104946433Y-92710109D01*
X104950552Y-92705565D01*
X105463204Y-92192913D01*
X105467748Y-92188794D01*
X105472675Y-92185140D01*
X105477936Y-92181987D01*
X105483480Y-92179365D01*
X105489255Y-92177298D01*
X105495205Y-92175808D01*
X105501272Y-92174908D01*
X105507398Y-92174607D01*
X105513524Y-92174908D01*
X105513524Y-92174908D01*
G37*
D16*
X105295266Y-92537627D03*
D14*
G36*
X105867077Y-92528462D02*
G01*
X105873144Y-92529362D01*
X105879094Y-92530852D01*
X105884869Y-92532919D01*
X105890413Y-92535541D01*
X105895674Y-92538694D01*
X105900601Y-92542348D01*
X105905145Y-92546467D01*
X105993533Y-92634855D01*
X105997652Y-92639399D01*
X106001306Y-92644326D01*
X106004459Y-92649587D01*
X106007081Y-92655131D01*
X106009148Y-92660906D01*
X106010638Y-92666856D01*
X106011538Y-92672923D01*
X106011839Y-92679049D01*
X106011538Y-92685175D01*
X106010638Y-92691242D01*
X106009148Y-92697192D01*
X106007081Y-92702967D01*
X106004459Y-92708511D01*
X106001306Y-92713772D01*
X105997652Y-92718699D01*
X105993533Y-92723243D01*
X105480881Y-93235895D01*
X105476337Y-93240014D01*
X105471410Y-93243668D01*
X105466149Y-93246821D01*
X105460605Y-93249443D01*
X105454830Y-93251510D01*
X105448880Y-93253000D01*
X105442813Y-93253900D01*
X105436687Y-93254201D01*
X105430561Y-93253900D01*
X105424494Y-93253000D01*
X105418544Y-93251510D01*
X105412769Y-93249443D01*
X105407225Y-93246821D01*
X105401964Y-93243668D01*
X105397037Y-93240014D01*
X105392493Y-93235895D01*
X105304105Y-93147507D01*
X105299986Y-93142963D01*
X105296332Y-93138036D01*
X105293179Y-93132775D01*
X105290557Y-93127231D01*
X105288490Y-93121456D01*
X105287000Y-93115506D01*
X105286100Y-93109439D01*
X105285799Y-93103313D01*
X105286100Y-93097187D01*
X105287000Y-93091120D01*
X105288490Y-93085170D01*
X105290557Y-93079395D01*
X105293179Y-93073851D01*
X105296332Y-93068590D01*
X105299986Y-93063663D01*
X105304105Y-93059119D01*
X105816757Y-92546467D01*
X105821301Y-92542348D01*
X105826228Y-92538694D01*
X105831489Y-92535541D01*
X105837033Y-92532919D01*
X105842808Y-92530852D01*
X105848758Y-92529362D01*
X105854825Y-92528462D01*
X105860951Y-92528161D01*
X105867077Y-92528462D01*
X105867077Y-92528462D01*
G37*
D16*
X105648819Y-92891181D03*
D14*
G36*
X106220631Y-92882015D02*
G01*
X106226698Y-92882915D01*
X106232648Y-92884405D01*
X106238423Y-92886472D01*
X106243967Y-92889094D01*
X106249228Y-92892247D01*
X106254155Y-92895901D01*
X106258699Y-92900020D01*
X106347087Y-92988408D01*
X106351206Y-92992952D01*
X106354860Y-92997879D01*
X106358013Y-93003140D01*
X106360635Y-93008684D01*
X106362702Y-93014459D01*
X106364192Y-93020409D01*
X106365092Y-93026476D01*
X106365393Y-93032602D01*
X106365092Y-93038728D01*
X106364192Y-93044795D01*
X106362702Y-93050745D01*
X106360635Y-93056520D01*
X106358013Y-93062064D01*
X106354860Y-93067325D01*
X106351206Y-93072252D01*
X106347087Y-93076796D01*
X105834435Y-93589448D01*
X105829891Y-93593567D01*
X105824964Y-93597221D01*
X105819703Y-93600374D01*
X105814159Y-93602996D01*
X105808384Y-93605063D01*
X105802434Y-93606553D01*
X105796367Y-93607453D01*
X105790241Y-93607754D01*
X105784115Y-93607453D01*
X105778048Y-93606553D01*
X105772098Y-93605063D01*
X105766323Y-93602996D01*
X105760779Y-93600374D01*
X105755518Y-93597221D01*
X105750591Y-93593567D01*
X105746047Y-93589448D01*
X105657659Y-93501060D01*
X105653540Y-93496516D01*
X105649886Y-93491589D01*
X105646733Y-93486328D01*
X105644111Y-93480784D01*
X105642044Y-93475009D01*
X105640554Y-93469059D01*
X105639654Y-93462992D01*
X105639353Y-93456866D01*
X105639654Y-93450740D01*
X105640554Y-93444673D01*
X105642044Y-93438723D01*
X105644111Y-93432948D01*
X105646733Y-93427404D01*
X105649886Y-93422143D01*
X105653540Y-93417216D01*
X105657659Y-93412672D01*
X106170311Y-92900020D01*
X106174855Y-92895901D01*
X106179782Y-92892247D01*
X106185043Y-92889094D01*
X106190587Y-92886472D01*
X106196362Y-92884405D01*
X106202312Y-92882915D01*
X106208379Y-92882015D01*
X106214505Y-92881714D01*
X106220631Y-92882015D01*
X106220631Y-92882015D01*
G37*
D16*
X106002373Y-93244734D03*
D14*
G36*
X106574184Y-93235568D02*
G01*
X106580251Y-93236468D01*
X106586201Y-93237958D01*
X106591976Y-93240025D01*
X106597520Y-93242647D01*
X106602781Y-93245800D01*
X106607708Y-93249454D01*
X106612252Y-93253573D01*
X106700640Y-93341961D01*
X106704759Y-93346505D01*
X106708413Y-93351432D01*
X106711566Y-93356693D01*
X106714188Y-93362237D01*
X106716255Y-93368012D01*
X106717745Y-93373962D01*
X106718645Y-93380029D01*
X106718946Y-93386155D01*
X106718645Y-93392281D01*
X106717745Y-93398348D01*
X106716255Y-93404298D01*
X106714188Y-93410073D01*
X106711566Y-93415617D01*
X106708413Y-93420878D01*
X106704759Y-93425805D01*
X106700640Y-93430349D01*
X106187988Y-93943001D01*
X106183444Y-93947120D01*
X106178517Y-93950774D01*
X106173256Y-93953927D01*
X106167712Y-93956549D01*
X106161937Y-93958616D01*
X106155987Y-93960106D01*
X106149920Y-93961006D01*
X106143794Y-93961307D01*
X106137668Y-93961006D01*
X106131601Y-93960106D01*
X106125651Y-93958616D01*
X106119876Y-93956549D01*
X106114332Y-93953927D01*
X106109071Y-93950774D01*
X106104144Y-93947120D01*
X106099600Y-93943001D01*
X106011212Y-93854613D01*
X106007093Y-93850069D01*
X106003439Y-93845142D01*
X106000286Y-93839881D01*
X105997664Y-93834337D01*
X105995597Y-93828562D01*
X105994107Y-93822612D01*
X105993207Y-93816545D01*
X105992906Y-93810419D01*
X105993207Y-93804293D01*
X105994107Y-93798226D01*
X105995597Y-93792276D01*
X105997664Y-93786501D01*
X106000286Y-93780957D01*
X106003439Y-93775696D01*
X106007093Y-93770769D01*
X106011212Y-93766225D01*
X106523864Y-93253573D01*
X106528408Y-93249454D01*
X106533335Y-93245800D01*
X106538596Y-93242647D01*
X106544140Y-93240025D01*
X106549915Y-93237958D01*
X106555865Y-93236468D01*
X106561932Y-93235568D01*
X106568058Y-93235267D01*
X106574184Y-93235568D01*
X106574184Y-93235568D01*
G37*
D16*
X106355926Y-93598287D03*
D14*
G36*
X107458068Y-93235568D02*
G01*
X107464135Y-93236468D01*
X107470085Y-93237958D01*
X107475860Y-93240025D01*
X107481404Y-93242647D01*
X107486665Y-93245800D01*
X107491592Y-93249454D01*
X107496136Y-93253573D01*
X108008788Y-93766225D01*
X108012907Y-93770769D01*
X108016561Y-93775696D01*
X108019714Y-93780957D01*
X108022336Y-93786501D01*
X108024403Y-93792276D01*
X108025893Y-93798226D01*
X108026793Y-93804293D01*
X108027094Y-93810419D01*
X108026793Y-93816545D01*
X108025893Y-93822612D01*
X108024403Y-93828562D01*
X108022336Y-93834337D01*
X108019714Y-93839881D01*
X108016561Y-93845142D01*
X108012907Y-93850069D01*
X108008788Y-93854613D01*
X107920400Y-93943001D01*
X107915856Y-93947120D01*
X107910929Y-93950774D01*
X107905668Y-93953927D01*
X107900124Y-93956549D01*
X107894349Y-93958616D01*
X107888399Y-93960106D01*
X107882332Y-93961006D01*
X107876206Y-93961307D01*
X107870080Y-93961006D01*
X107864013Y-93960106D01*
X107858063Y-93958616D01*
X107852288Y-93956549D01*
X107846744Y-93953927D01*
X107841483Y-93950774D01*
X107836556Y-93947120D01*
X107832012Y-93943001D01*
X107319360Y-93430349D01*
X107315241Y-93425805D01*
X107311587Y-93420878D01*
X107308434Y-93415617D01*
X107305812Y-93410073D01*
X107303745Y-93404298D01*
X107302255Y-93398348D01*
X107301355Y-93392281D01*
X107301054Y-93386155D01*
X107301355Y-93380029D01*
X107302255Y-93373962D01*
X107303745Y-93368012D01*
X107305812Y-93362237D01*
X107308434Y-93356693D01*
X107311587Y-93351432D01*
X107315241Y-93346505D01*
X107319360Y-93341961D01*
X107407748Y-93253573D01*
X107412292Y-93249454D01*
X107417219Y-93245800D01*
X107422480Y-93242647D01*
X107428024Y-93240025D01*
X107433799Y-93237958D01*
X107439749Y-93236468D01*
X107445816Y-93235568D01*
X107451942Y-93235267D01*
X107458068Y-93235568D01*
X107458068Y-93235568D01*
G37*
D16*
X107664074Y-93598287D03*
D14*
G36*
X107811621Y-92882015D02*
G01*
X107817688Y-92882915D01*
X107823638Y-92884405D01*
X107829413Y-92886472D01*
X107834957Y-92889094D01*
X107840218Y-92892247D01*
X107845145Y-92895901D01*
X107849689Y-92900020D01*
X108362341Y-93412672D01*
X108366460Y-93417216D01*
X108370114Y-93422143D01*
X108373267Y-93427404D01*
X108375889Y-93432948D01*
X108377956Y-93438723D01*
X108379446Y-93444673D01*
X108380346Y-93450740D01*
X108380647Y-93456866D01*
X108380346Y-93462992D01*
X108379446Y-93469059D01*
X108377956Y-93475009D01*
X108375889Y-93480784D01*
X108373267Y-93486328D01*
X108370114Y-93491589D01*
X108366460Y-93496516D01*
X108362341Y-93501060D01*
X108273953Y-93589448D01*
X108269409Y-93593567D01*
X108264482Y-93597221D01*
X108259221Y-93600374D01*
X108253677Y-93602996D01*
X108247902Y-93605063D01*
X108241952Y-93606553D01*
X108235885Y-93607453D01*
X108229759Y-93607754D01*
X108223633Y-93607453D01*
X108217566Y-93606553D01*
X108211616Y-93605063D01*
X108205841Y-93602996D01*
X108200297Y-93600374D01*
X108195036Y-93597221D01*
X108190109Y-93593567D01*
X108185565Y-93589448D01*
X107672913Y-93076796D01*
X107668794Y-93072252D01*
X107665140Y-93067325D01*
X107661987Y-93062064D01*
X107659365Y-93056520D01*
X107657298Y-93050745D01*
X107655808Y-93044795D01*
X107654908Y-93038728D01*
X107654607Y-93032602D01*
X107654908Y-93026476D01*
X107655808Y-93020409D01*
X107657298Y-93014459D01*
X107659365Y-93008684D01*
X107661987Y-93003140D01*
X107665140Y-92997879D01*
X107668794Y-92992952D01*
X107672913Y-92988408D01*
X107761301Y-92900020D01*
X107765845Y-92895901D01*
X107770772Y-92892247D01*
X107776033Y-92889094D01*
X107781577Y-92886472D01*
X107787352Y-92884405D01*
X107793302Y-92882915D01*
X107799369Y-92882015D01*
X107805495Y-92881714D01*
X107811621Y-92882015D01*
X107811621Y-92882015D01*
G37*
D16*
X108017627Y-93244734D03*
D14*
G36*
X108165175Y-92528462D02*
G01*
X108171242Y-92529362D01*
X108177192Y-92530852D01*
X108182967Y-92532919D01*
X108188511Y-92535541D01*
X108193772Y-92538694D01*
X108198699Y-92542348D01*
X108203243Y-92546467D01*
X108715895Y-93059119D01*
X108720014Y-93063663D01*
X108723668Y-93068590D01*
X108726821Y-93073851D01*
X108729443Y-93079395D01*
X108731510Y-93085170D01*
X108733000Y-93091120D01*
X108733900Y-93097187D01*
X108734201Y-93103313D01*
X108733900Y-93109439D01*
X108733000Y-93115506D01*
X108731510Y-93121456D01*
X108729443Y-93127231D01*
X108726821Y-93132775D01*
X108723668Y-93138036D01*
X108720014Y-93142963D01*
X108715895Y-93147507D01*
X108627507Y-93235895D01*
X108622963Y-93240014D01*
X108618036Y-93243668D01*
X108612775Y-93246821D01*
X108607231Y-93249443D01*
X108601456Y-93251510D01*
X108595506Y-93253000D01*
X108589439Y-93253900D01*
X108583313Y-93254201D01*
X108577187Y-93253900D01*
X108571120Y-93253000D01*
X108565170Y-93251510D01*
X108559395Y-93249443D01*
X108553851Y-93246821D01*
X108548590Y-93243668D01*
X108543663Y-93240014D01*
X108539119Y-93235895D01*
X108026467Y-92723243D01*
X108022348Y-92718699D01*
X108018694Y-92713772D01*
X108015541Y-92708511D01*
X108012919Y-92702967D01*
X108010852Y-92697192D01*
X108009362Y-92691242D01*
X108008462Y-92685175D01*
X108008161Y-92679049D01*
X108008462Y-92672923D01*
X108009362Y-92666856D01*
X108010852Y-92660906D01*
X108012919Y-92655131D01*
X108015541Y-92649587D01*
X108018694Y-92644326D01*
X108022348Y-92639399D01*
X108026467Y-92634855D01*
X108114855Y-92546467D01*
X108119399Y-92542348D01*
X108124326Y-92538694D01*
X108129587Y-92535541D01*
X108135131Y-92532919D01*
X108140906Y-92530852D01*
X108146856Y-92529362D01*
X108152923Y-92528462D01*
X108159049Y-92528161D01*
X108165175Y-92528462D01*
X108165175Y-92528462D01*
G37*
D16*
X108371181Y-92891181D03*
D14*
G36*
X108518728Y-92174908D02*
G01*
X108524795Y-92175808D01*
X108530745Y-92177298D01*
X108536520Y-92179365D01*
X108542064Y-92181987D01*
X108547325Y-92185140D01*
X108552252Y-92188794D01*
X108556796Y-92192913D01*
X109069448Y-92705565D01*
X109073567Y-92710109D01*
X109077221Y-92715036D01*
X109080374Y-92720297D01*
X109082996Y-92725841D01*
X109085063Y-92731616D01*
X109086553Y-92737566D01*
X109087453Y-92743633D01*
X109087754Y-92749759D01*
X109087453Y-92755885D01*
X109086553Y-92761952D01*
X109085063Y-92767902D01*
X109082996Y-92773677D01*
X109080374Y-92779221D01*
X109077221Y-92784482D01*
X109073567Y-92789409D01*
X109069448Y-92793953D01*
X108981060Y-92882341D01*
X108976516Y-92886460D01*
X108971589Y-92890114D01*
X108966328Y-92893267D01*
X108960784Y-92895889D01*
X108955009Y-92897956D01*
X108949059Y-92899446D01*
X108942992Y-92900346D01*
X108936866Y-92900647D01*
X108930740Y-92900346D01*
X108924673Y-92899446D01*
X108918723Y-92897956D01*
X108912948Y-92895889D01*
X108907404Y-92893267D01*
X108902143Y-92890114D01*
X108897216Y-92886460D01*
X108892672Y-92882341D01*
X108380020Y-92369689D01*
X108375901Y-92365145D01*
X108372247Y-92360218D01*
X108369094Y-92354957D01*
X108366472Y-92349413D01*
X108364405Y-92343638D01*
X108362915Y-92337688D01*
X108362015Y-92331621D01*
X108361714Y-92325495D01*
X108362015Y-92319369D01*
X108362915Y-92313302D01*
X108364405Y-92307352D01*
X108366472Y-92301577D01*
X108369094Y-92296033D01*
X108372247Y-92290772D01*
X108375901Y-92285845D01*
X108380020Y-92281301D01*
X108468408Y-92192913D01*
X108472952Y-92188794D01*
X108477879Y-92185140D01*
X108483140Y-92181987D01*
X108488684Y-92179365D01*
X108494459Y-92177298D01*
X108500409Y-92175808D01*
X108506476Y-92174908D01*
X108512602Y-92174607D01*
X108518728Y-92174908D01*
X108518728Y-92174908D01*
G37*
D16*
X108724734Y-92537627D03*
D14*
G36*
X108872281Y-91821355D02*
G01*
X108878348Y-91822255D01*
X108884298Y-91823745D01*
X108890073Y-91825812D01*
X108895617Y-91828434D01*
X108900878Y-91831587D01*
X108905805Y-91835241D01*
X108910349Y-91839360D01*
X109423001Y-92352012D01*
X109427120Y-92356556D01*
X109430774Y-92361483D01*
X109433927Y-92366744D01*
X109436549Y-92372288D01*
X109438616Y-92378063D01*
X109440106Y-92384013D01*
X109441006Y-92390080D01*
X109441307Y-92396206D01*
X109441006Y-92402332D01*
X109440106Y-92408399D01*
X109438616Y-92414349D01*
X109436549Y-92420124D01*
X109433927Y-92425668D01*
X109430774Y-92430929D01*
X109427120Y-92435856D01*
X109423001Y-92440400D01*
X109334613Y-92528788D01*
X109330069Y-92532907D01*
X109325142Y-92536561D01*
X109319881Y-92539714D01*
X109314337Y-92542336D01*
X109308562Y-92544403D01*
X109302612Y-92545893D01*
X109296545Y-92546793D01*
X109290419Y-92547094D01*
X109284293Y-92546793D01*
X109278226Y-92545893D01*
X109272276Y-92544403D01*
X109266501Y-92542336D01*
X109260957Y-92539714D01*
X109255696Y-92536561D01*
X109250769Y-92532907D01*
X109246225Y-92528788D01*
X108733573Y-92016136D01*
X108729454Y-92011592D01*
X108725800Y-92006665D01*
X108722647Y-92001404D01*
X108720025Y-91995860D01*
X108717958Y-91990085D01*
X108716468Y-91984135D01*
X108715568Y-91978068D01*
X108715267Y-91971942D01*
X108715568Y-91965816D01*
X108716468Y-91959749D01*
X108717958Y-91953799D01*
X108720025Y-91948024D01*
X108722647Y-91942480D01*
X108725800Y-91937219D01*
X108729454Y-91932292D01*
X108733573Y-91927748D01*
X108821961Y-91839360D01*
X108826505Y-91835241D01*
X108831432Y-91831587D01*
X108836693Y-91828434D01*
X108842237Y-91825812D01*
X108848012Y-91823745D01*
X108853962Y-91822255D01*
X108860029Y-91821355D01*
X108866155Y-91821054D01*
X108872281Y-91821355D01*
X108872281Y-91821355D01*
G37*
D16*
X109078287Y-92184074D03*
D14*
G36*
X109296545Y-90513207D02*
G01*
X109302612Y-90514107D01*
X109308562Y-90515597D01*
X109314337Y-90517664D01*
X109319881Y-90520286D01*
X109325142Y-90523439D01*
X109330069Y-90527093D01*
X109334613Y-90531212D01*
X109423001Y-90619600D01*
X109427120Y-90624144D01*
X109430774Y-90629071D01*
X109433927Y-90634332D01*
X109436549Y-90639876D01*
X109438616Y-90645651D01*
X109440106Y-90651601D01*
X109441006Y-90657668D01*
X109441307Y-90663794D01*
X109441006Y-90669920D01*
X109440106Y-90675987D01*
X109438616Y-90681937D01*
X109436549Y-90687712D01*
X109433927Y-90693256D01*
X109430774Y-90698517D01*
X109427120Y-90703444D01*
X109423001Y-90707988D01*
X108910349Y-91220640D01*
X108905805Y-91224759D01*
X108900878Y-91228413D01*
X108895617Y-91231566D01*
X108890073Y-91234188D01*
X108884298Y-91236255D01*
X108878348Y-91237745D01*
X108872281Y-91238645D01*
X108866155Y-91238946D01*
X108860029Y-91238645D01*
X108853962Y-91237745D01*
X108848012Y-91236255D01*
X108842237Y-91234188D01*
X108836693Y-91231566D01*
X108831432Y-91228413D01*
X108826505Y-91224759D01*
X108821961Y-91220640D01*
X108733573Y-91132252D01*
X108729454Y-91127708D01*
X108725800Y-91122781D01*
X108722647Y-91117520D01*
X108720025Y-91111976D01*
X108717958Y-91106201D01*
X108716468Y-91100251D01*
X108715568Y-91094184D01*
X108715267Y-91088058D01*
X108715568Y-91081932D01*
X108716468Y-91075865D01*
X108717958Y-91069915D01*
X108720025Y-91064140D01*
X108722647Y-91058596D01*
X108725800Y-91053335D01*
X108729454Y-91048408D01*
X108733573Y-91043864D01*
X109246225Y-90531212D01*
X109250769Y-90527093D01*
X109255696Y-90523439D01*
X109260957Y-90520286D01*
X109266501Y-90517664D01*
X109272276Y-90515597D01*
X109278226Y-90514107D01*
X109284293Y-90513207D01*
X109290419Y-90512906D01*
X109296545Y-90513207D01*
X109296545Y-90513207D01*
G37*
D16*
X109078287Y-90875926D03*
D14*
G36*
X108942992Y-90159654D02*
G01*
X108949059Y-90160554D01*
X108955009Y-90162044D01*
X108960784Y-90164111D01*
X108966328Y-90166733D01*
X108971589Y-90169886D01*
X108976516Y-90173540D01*
X108981060Y-90177659D01*
X109069448Y-90266047D01*
X109073567Y-90270591D01*
X109077221Y-90275518D01*
X109080374Y-90280779D01*
X109082996Y-90286323D01*
X109085063Y-90292098D01*
X109086553Y-90298048D01*
X109087453Y-90304115D01*
X109087754Y-90310241D01*
X109087453Y-90316367D01*
X109086553Y-90322434D01*
X109085063Y-90328384D01*
X109082996Y-90334159D01*
X109080374Y-90339703D01*
X109077221Y-90344964D01*
X109073567Y-90349891D01*
X109069448Y-90354435D01*
X108556796Y-90867087D01*
X108552252Y-90871206D01*
X108547325Y-90874860D01*
X108542064Y-90878013D01*
X108536520Y-90880635D01*
X108530745Y-90882702D01*
X108524795Y-90884192D01*
X108518728Y-90885092D01*
X108512602Y-90885393D01*
X108506476Y-90885092D01*
X108500409Y-90884192D01*
X108494459Y-90882702D01*
X108488684Y-90880635D01*
X108483140Y-90878013D01*
X108477879Y-90874860D01*
X108472952Y-90871206D01*
X108468408Y-90867087D01*
X108380020Y-90778699D01*
X108375901Y-90774155D01*
X108372247Y-90769228D01*
X108369094Y-90763967D01*
X108366472Y-90758423D01*
X108364405Y-90752648D01*
X108362915Y-90746698D01*
X108362015Y-90740631D01*
X108361714Y-90734505D01*
X108362015Y-90728379D01*
X108362915Y-90722312D01*
X108364405Y-90716362D01*
X108366472Y-90710587D01*
X108369094Y-90705043D01*
X108372247Y-90699782D01*
X108375901Y-90694855D01*
X108380020Y-90690311D01*
X108892672Y-90177659D01*
X108897216Y-90173540D01*
X108902143Y-90169886D01*
X108907404Y-90166733D01*
X108912948Y-90164111D01*
X108918723Y-90162044D01*
X108924673Y-90160554D01*
X108930740Y-90159654D01*
X108936866Y-90159353D01*
X108942992Y-90159654D01*
X108942992Y-90159654D01*
G37*
D16*
X108724734Y-90522373D03*
D14*
G36*
X108589439Y-89806100D02*
G01*
X108595506Y-89807000D01*
X108601456Y-89808490D01*
X108607231Y-89810557D01*
X108612775Y-89813179D01*
X108618036Y-89816332D01*
X108622963Y-89819986D01*
X108627507Y-89824105D01*
X108715895Y-89912493D01*
X108720014Y-89917037D01*
X108723668Y-89921964D01*
X108726821Y-89927225D01*
X108729443Y-89932769D01*
X108731510Y-89938544D01*
X108733000Y-89944494D01*
X108733900Y-89950561D01*
X108734201Y-89956687D01*
X108733900Y-89962813D01*
X108733000Y-89968880D01*
X108731510Y-89974830D01*
X108729443Y-89980605D01*
X108726821Y-89986149D01*
X108723668Y-89991410D01*
X108720014Y-89996337D01*
X108715895Y-90000881D01*
X108203243Y-90513533D01*
X108198699Y-90517652D01*
X108193772Y-90521306D01*
X108188511Y-90524459D01*
X108182967Y-90527081D01*
X108177192Y-90529148D01*
X108171242Y-90530638D01*
X108165175Y-90531538D01*
X108159049Y-90531839D01*
X108152923Y-90531538D01*
X108146856Y-90530638D01*
X108140906Y-90529148D01*
X108135131Y-90527081D01*
X108129587Y-90524459D01*
X108124326Y-90521306D01*
X108119399Y-90517652D01*
X108114855Y-90513533D01*
X108026467Y-90425145D01*
X108022348Y-90420601D01*
X108018694Y-90415674D01*
X108015541Y-90410413D01*
X108012919Y-90404869D01*
X108010852Y-90399094D01*
X108009362Y-90393144D01*
X108008462Y-90387077D01*
X108008161Y-90380951D01*
X108008462Y-90374825D01*
X108009362Y-90368758D01*
X108010852Y-90362808D01*
X108012919Y-90357033D01*
X108015541Y-90351489D01*
X108018694Y-90346228D01*
X108022348Y-90341301D01*
X108026467Y-90336757D01*
X108539119Y-89824105D01*
X108543663Y-89819986D01*
X108548590Y-89816332D01*
X108553851Y-89813179D01*
X108559395Y-89810557D01*
X108565170Y-89808490D01*
X108571120Y-89807000D01*
X108577187Y-89806100D01*
X108583313Y-89805799D01*
X108589439Y-89806100D01*
X108589439Y-89806100D01*
G37*
D16*
X108371181Y-90168819D03*
D14*
G36*
X108235885Y-89452547D02*
G01*
X108241952Y-89453447D01*
X108247902Y-89454937D01*
X108253677Y-89457004D01*
X108259221Y-89459626D01*
X108264482Y-89462779D01*
X108269409Y-89466433D01*
X108273953Y-89470552D01*
X108362341Y-89558940D01*
X108366460Y-89563484D01*
X108370114Y-89568411D01*
X108373267Y-89573672D01*
X108375889Y-89579216D01*
X108377956Y-89584991D01*
X108379446Y-89590941D01*
X108380346Y-89597008D01*
X108380647Y-89603134D01*
X108380346Y-89609260D01*
X108379446Y-89615327D01*
X108377956Y-89621277D01*
X108375889Y-89627052D01*
X108373267Y-89632596D01*
X108370114Y-89637857D01*
X108366460Y-89642784D01*
X108362341Y-89647328D01*
X107849689Y-90159980D01*
X107845145Y-90164099D01*
X107840218Y-90167753D01*
X107834957Y-90170906D01*
X107829413Y-90173528D01*
X107823638Y-90175595D01*
X107817688Y-90177085D01*
X107811621Y-90177985D01*
X107805495Y-90178286D01*
X107799369Y-90177985D01*
X107793302Y-90177085D01*
X107787352Y-90175595D01*
X107781577Y-90173528D01*
X107776033Y-90170906D01*
X107770772Y-90167753D01*
X107765845Y-90164099D01*
X107761301Y-90159980D01*
X107672913Y-90071592D01*
X107668794Y-90067048D01*
X107665140Y-90062121D01*
X107661987Y-90056860D01*
X107659365Y-90051316D01*
X107657298Y-90045541D01*
X107655808Y-90039591D01*
X107654908Y-90033524D01*
X107654607Y-90027398D01*
X107654908Y-90021272D01*
X107655808Y-90015205D01*
X107657298Y-90009255D01*
X107659365Y-90003480D01*
X107661987Y-89997936D01*
X107665140Y-89992675D01*
X107668794Y-89987748D01*
X107672913Y-89983204D01*
X108185565Y-89470552D01*
X108190109Y-89466433D01*
X108195036Y-89462779D01*
X108200297Y-89459626D01*
X108205841Y-89457004D01*
X108211616Y-89454937D01*
X108217566Y-89453447D01*
X108223633Y-89452547D01*
X108229759Y-89452246D01*
X108235885Y-89452547D01*
X108235885Y-89452547D01*
G37*
D16*
X108017627Y-89815266D03*
D14*
G36*
X107882332Y-89098994D02*
G01*
X107888399Y-89099894D01*
X107894349Y-89101384D01*
X107900124Y-89103451D01*
X107905668Y-89106073D01*
X107910929Y-89109226D01*
X107915856Y-89112880D01*
X107920400Y-89116999D01*
X108008788Y-89205387D01*
X108012907Y-89209931D01*
X108016561Y-89214858D01*
X108019714Y-89220119D01*
X108022336Y-89225663D01*
X108024403Y-89231438D01*
X108025893Y-89237388D01*
X108026793Y-89243455D01*
X108027094Y-89249581D01*
X108026793Y-89255707D01*
X108025893Y-89261774D01*
X108024403Y-89267724D01*
X108022336Y-89273499D01*
X108019714Y-89279043D01*
X108016561Y-89284304D01*
X108012907Y-89289231D01*
X108008788Y-89293775D01*
X107496136Y-89806427D01*
X107491592Y-89810546D01*
X107486665Y-89814200D01*
X107481404Y-89817353D01*
X107475860Y-89819975D01*
X107470085Y-89822042D01*
X107464135Y-89823532D01*
X107458068Y-89824432D01*
X107451942Y-89824733D01*
X107445816Y-89824432D01*
X107439749Y-89823532D01*
X107433799Y-89822042D01*
X107428024Y-89819975D01*
X107422480Y-89817353D01*
X107417219Y-89814200D01*
X107412292Y-89810546D01*
X107407748Y-89806427D01*
X107319360Y-89718039D01*
X107315241Y-89713495D01*
X107311587Y-89708568D01*
X107308434Y-89703307D01*
X107305812Y-89697763D01*
X107303745Y-89691988D01*
X107302255Y-89686038D01*
X107301355Y-89679971D01*
X107301054Y-89673845D01*
X107301355Y-89667719D01*
X107302255Y-89661652D01*
X107303745Y-89655702D01*
X107305812Y-89649927D01*
X107308434Y-89644383D01*
X107311587Y-89639122D01*
X107315241Y-89634195D01*
X107319360Y-89629651D01*
X107832012Y-89116999D01*
X107836556Y-89112880D01*
X107841483Y-89109226D01*
X107846744Y-89106073D01*
X107852288Y-89103451D01*
X107858063Y-89101384D01*
X107864013Y-89099894D01*
X107870080Y-89098994D01*
X107876206Y-89098693D01*
X107882332Y-89098994D01*
X107882332Y-89098994D01*
G37*
D16*
X107664074Y-89461713D03*
D14*
G36*
X106149920Y-89098994D02*
G01*
X106155987Y-89099894D01*
X106161937Y-89101384D01*
X106167712Y-89103451D01*
X106173256Y-89106073D01*
X106178517Y-89109226D01*
X106183444Y-89112880D01*
X106187988Y-89116999D01*
X106700640Y-89629651D01*
X106704759Y-89634195D01*
X106708413Y-89639122D01*
X106711566Y-89644383D01*
X106714188Y-89649927D01*
X106716255Y-89655702D01*
X106717745Y-89661652D01*
X106718645Y-89667719D01*
X106718946Y-89673845D01*
X106718645Y-89679971D01*
X106717745Y-89686038D01*
X106716255Y-89691988D01*
X106714188Y-89697763D01*
X106711566Y-89703307D01*
X106708413Y-89708568D01*
X106704759Y-89713495D01*
X106700640Y-89718039D01*
X106612252Y-89806427D01*
X106607708Y-89810546D01*
X106602781Y-89814200D01*
X106597520Y-89817353D01*
X106591976Y-89819975D01*
X106586201Y-89822042D01*
X106580251Y-89823532D01*
X106574184Y-89824432D01*
X106568058Y-89824733D01*
X106561932Y-89824432D01*
X106555865Y-89823532D01*
X106549915Y-89822042D01*
X106544140Y-89819975D01*
X106538596Y-89817353D01*
X106533335Y-89814200D01*
X106528408Y-89810546D01*
X106523864Y-89806427D01*
X106011212Y-89293775D01*
X106007093Y-89289231D01*
X106003439Y-89284304D01*
X106000286Y-89279043D01*
X105997664Y-89273499D01*
X105995597Y-89267724D01*
X105994107Y-89261774D01*
X105993207Y-89255707D01*
X105992906Y-89249581D01*
X105993207Y-89243455D01*
X105994107Y-89237388D01*
X105995597Y-89231438D01*
X105997664Y-89225663D01*
X106000286Y-89220119D01*
X106003439Y-89214858D01*
X106007093Y-89209931D01*
X106011212Y-89205387D01*
X106099600Y-89116999D01*
X106104144Y-89112880D01*
X106109071Y-89109226D01*
X106114332Y-89106073D01*
X106119876Y-89103451D01*
X106125651Y-89101384D01*
X106131601Y-89099894D01*
X106137668Y-89098994D01*
X106143794Y-89098693D01*
X106149920Y-89098994D01*
X106149920Y-89098994D01*
G37*
D16*
X106355926Y-89461713D03*
D14*
G36*
X105796367Y-89452547D02*
G01*
X105802434Y-89453447D01*
X105808384Y-89454937D01*
X105814159Y-89457004D01*
X105819703Y-89459626D01*
X105824964Y-89462779D01*
X105829891Y-89466433D01*
X105834435Y-89470552D01*
X106347087Y-89983204D01*
X106351206Y-89987748D01*
X106354860Y-89992675D01*
X106358013Y-89997936D01*
X106360635Y-90003480D01*
X106362702Y-90009255D01*
X106364192Y-90015205D01*
X106365092Y-90021272D01*
X106365393Y-90027398D01*
X106365092Y-90033524D01*
X106364192Y-90039591D01*
X106362702Y-90045541D01*
X106360635Y-90051316D01*
X106358013Y-90056860D01*
X106354860Y-90062121D01*
X106351206Y-90067048D01*
X106347087Y-90071592D01*
X106258699Y-90159980D01*
X106254155Y-90164099D01*
X106249228Y-90167753D01*
X106243967Y-90170906D01*
X106238423Y-90173528D01*
X106232648Y-90175595D01*
X106226698Y-90177085D01*
X106220631Y-90177985D01*
X106214505Y-90178286D01*
X106208379Y-90177985D01*
X106202312Y-90177085D01*
X106196362Y-90175595D01*
X106190587Y-90173528D01*
X106185043Y-90170906D01*
X106179782Y-90167753D01*
X106174855Y-90164099D01*
X106170311Y-90159980D01*
X105657659Y-89647328D01*
X105653540Y-89642784D01*
X105649886Y-89637857D01*
X105646733Y-89632596D01*
X105644111Y-89627052D01*
X105642044Y-89621277D01*
X105640554Y-89615327D01*
X105639654Y-89609260D01*
X105639353Y-89603134D01*
X105639654Y-89597008D01*
X105640554Y-89590941D01*
X105642044Y-89584991D01*
X105644111Y-89579216D01*
X105646733Y-89573672D01*
X105649886Y-89568411D01*
X105653540Y-89563484D01*
X105657659Y-89558940D01*
X105746047Y-89470552D01*
X105750591Y-89466433D01*
X105755518Y-89462779D01*
X105760779Y-89459626D01*
X105766323Y-89457004D01*
X105772098Y-89454937D01*
X105778048Y-89453447D01*
X105784115Y-89452547D01*
X105790241Y-89452246D01*
X105796367Y-89452547D01*
X105796367Y-89452547D01*
G37*
D16*
X106002373Y-89815266D03*
D14*
G36*
X105442813Y-89806100D02*
G01*
X105448880Y-89807000D01*
X105454830Y-89808490D01*
X105460605Y-89810557D01*
X105466149Y-89813179D01*
X105471410Y-89816332D01*
X105476337Y-89819986D01*
X105480881Y-89824105D01*
X105993533Y-90336757D01*
X105997652Y-90341301D01*
X106001306Y-90346228D01*
X106004459Y-90351489D01*
X106007081Y-90357033D01*
X106009148Y-90362808D01*
X106010638Y-90368758D01*
X106011538Y-90374825D01*
X106011839Y-90380951D01*
X106011538Y-90387077D01*
X106010638Y-90393144D01*
X106009148Y-90399094D01*
X106007081Y-90404869D01*
X106004459Y-90410413D01*
X106001306Y-90415674D01*
X105997652Y-90420601D01*
X105993533Y-90425145D01*
X105905145Y-90513533D01*
X105900601Y-90517652D01*
X105895674Y-90521306D01*
X105890413Y-90524459D01*
X105884869Y-90527081D01*
X105879094Y-90529148D01*
X105873144Y-90530638D01*
X105867077Y-90531538D01*
X105860951Y-90531839D01*
X105854825Y-90531538D01*
X105848758Y-90530638D01*
X105842808Y-90529148D01*
X105837033Y-90527081D01*
X105831489Y-90524459D01*
X105826228Y-90521306D01*
X105821301Y-90517652D01*
X105816757Y-90513533D01*
X105304105Y-90000881D01*
X105299986Y-89996337D01*
X105296332Y-89991410D01*
X105293179Y-89986149D01*
X105290557Y-89980605D01*
X105288490Y-89974830D01*
X105287000Y-89968880D01*
X105286100Y-89962813D01*
X105285799Y-89956687D01*
X105286100Y-89950561D01*
X105287000Y-89944494D01*
X105288490Y-89938544D01*
X105290557Y-89932769D01*
X105293179Y-89927225D01*
X105296332Y-89921964D01*
X105299986Y-89917037D01*
X105304105Y-89912493D01*
X105392493Y-89824105D01*
X105397037Y-89819986D01*
X105401964Y-89816332D01*
X105407225Y-89813179D01*
X105412769Y-89810557D01*
X105418544Y-89808490D01*
X105424494Y-89807000D01*
X105430561Y-89806100D01*
X105436687Y-89805799D01*
X105442813Y-89806100D01*
X105442813Y-89806100D01*
G37*
D16*
X105648819Y-90168819D03*
D14*
G36*
X105089260Y-90159654D02*
G01*
X105095327Y-90160554D01*
X105101277Y-90162044D01*
X105107052Y-90164111D01*
X105112596Y-90166733D01*
X105117857Y-90169886D01*
X105122784Y-90173540D01*
X105127328Y-90177659D01*
X105639980Y-90690311D01*
X105644099Y-90694855D01*
X105647753Y-90699782D01*
X105650906Y-90705043D01*
X105653528Y-90710587D01*
X105655595Y-90716362D01*
X105657085Y-90722312D01*
X105657985Y-90728379D01*
X105658286Y-90734505D01*
X105657985Y-90740631D01*
X105657085Y-90746698D01*
X105655595Y-90752648D01*
X105653528Y-90758423D01*
X105650906Y-90763967D01*
X105647753Y-90769228D01*
X105644099Y-90774155D01*
X105639980Y-90778699D01*
X105551592Y-90867087D01*
X105547048Y-90871206D01*
X105542121Y-90874860D01*
X105536860Y-90878013D01*
X105531316Y-90880635D01*
X105525541Y-90882702D01*
X105519591Y-90884192D01*
X105513524Y-90885092D01*
X105507398Y-90885393D01*
X105501272Y-90885092D01*
X105495205Y-90884192D01*
X105489255Y-90882702D01*
X105483480Y-90880635D01*
X105477936Y-90878013D01*
X105472675Y-90874860D01*
X105467748Y-90871206D01*
X105463204Y-90867087D01*
X104950552Y-90354435D01*
X104946433Y-90349891D01*
X104942779Y-90344964D01*
X104939626Y-90339703D01*
X104937004Y-90334159D01*
X104934937Y-90328384D01*
X104933447Y-90322434D01*
X104932547Y-90316367D01*
X104932246Y-90310241D01*
X104932547Y-90304115D01*
X104933447Y-90298048D01*
X104934937Y-90292098D01*
X104937004Y-90286323D01*
X104939626Y-90280779D01*
X104942779Y-90275518D01*
X104946433Y-90270591D01*
X104950552Y-90266047D01*
X105038940Y-90177659D01*
X105043484Y-90173540D01*
X105048411Y-90169886D01*
X105053672Y-90166733D01*
X105059216Y-90164111D01*
X105064991Y-90162044D01*
X105070941Y-90160554D01*
X105077008Y-90159654D01*
X105083134Y-90159353D01*
X105089260Y-90159654D01*
X105089260Y-90159654D01*
G37*
D16*
X105295266Y-90522373D03*
D14*
G36*
X104735707Y-90513207D02*
G01*
X104741774Y-90514107D01*
X104747724Y-90515597D01*
X104753499Y-90517664D01*
X104759043Y-90520286D01*
X104764304Y-90523439D01*
X104769231Y-90527093D01*
X104773775Y-90531212D01*
X105286427Y-91043864D01*
X105290546Y-91048408D01*
X105294200Y-91053335D01*
X105297353Y-91058596D01*
X105299975Y-91064140D01*
X105302042Y-91069915D01*
X105303532Y-91075865D01*
X105304432Y-91081932D01*
X105304733Y-91088058D01*
X105304432Y-91094184D01*
X105303532Y-91100251D01*
X105302042Y-91106201D01*
X105299975Y-91111976D01*
X105297353Y-91117520D01*
X105294200Y-91122781D01*
X105290546Y-91127708D01*
X105286427Y-91132252D01*
X105198039Y-91220640D01*
X105193495Y-91224759D01*
X105188568Y-91228413D01*
X105183307Y-91231566D01*
X105177763Y-91234188D01*
X105171988Y-91236255D01*
X105166038Y-91237745D01*
X105159971Y-91238645D01*
X105153845Y-91238946D01*
X105147719Y-91238645D01*
X105141652Y-91237745D01*
X105135702Y-91236255D01*
X105129927Y-91234188D01*
X105124383Y-91231566D01*
X105119122Y-91228413D01*
X105114195Y-91224759D01*
X105109651Y-91220640D01*
X104596999Y-90707988D01*
X104592880Y-90703444D01*
X104589226Y-90698517D01*
X104586073Y-90693256D01*
X104583451Y-90687712D01*
X104581384Y-90681937D01*
X104579894Y-90675987D01*
X104578994Y-90669920D01*
X104578693Y-90663794D01*
X104578994Y-90657668D01*
X104579894Y-90651601D01*
X104581384Y-90645651D01*
X104583451Y-90639876D01*
X104586073Y-90634332D01*
X104589226Y-90629071D01*
X104592880Y-90624144D01*
X104596999Y-90619600D01*
X104685387Y-90531212D01*
X104689931Y-90527093D01*
X104694858Y-90523439D01*
X104700119Y-90520286D01*
X104705663Y-90517664D01*
X104711438Y-90515597D01*
X104717388Y-90514107D01*
X104723455Y-90513207D01*
X104729581Y-90512906D01*
X104735707Y-90513207D01*
X104735707Y-90513207D01*
G37*
D16*
X104941713Y-90875926D03*
M02*
