G04 #@! TF.GenerationSoftware,KiCad,Pcbnew,(5.1.2-1)-1*
G04 #@! TF.CreationDate,2019-07-26T12:58:34-07:00*
G04 #@! TF.ProjectId,DemonSeed,44656d6f-6e53-4656-9564-2e6b69636164,rev?*
G04 #@! TF.SameCoordinates,Original*
G04 #@! TF.FileFunction,Legend,Bot*
G04 #@! TF.FilePolarity,Positive*
%FSLAX46Y46*%
G04 Gerber Fmt 4.6, Leading zero omitted, Abs format (unit mm)*
G04 Created by KiCad (PCBNEW (5.1.2-1)-1) date 2019-07-26 12:58:34*
%MOMM*%
%LPD*%
G04 APERTURE LIST*
%ADD10C,0.150000*%
%ADD11C,0.125000*%
G04 APERTURE END LIST*
D10*
X109691428Y-92881428D02*
X108191428Y-92738571D01*
X109262857Y-92624285D01*
X108191428Y-92510000D01*
X109691428Y-92367142D01*
X109691428Y-92195714D02*
X108191428Y-92052857D01*
X109262857Y-91938571D01*
X108191428Y-91824285D01*
X109691428Y-91681428D01*
X109691428Y-91510000D02*
X108191428Y-91367142D01*
X109262857Y-91252857D01*
X108191428Y-91138571D01*
X109691428Y-90995714D01*
X108334285Y-90767142D02*
X108262857Y-90738571D01*
X108191428Y-90767142D01*
X108262857Y-90795714D01*
X108334285Y-90767142D01*
X108191428Y-90767142D01*
X108191428Y-90481428D02*
X109691428Y-90481428D01*
X108620000Y-90281428D01*
X109691428Y-90081428D01*
X108191428Y-90081428D01*
X109620000Y-89481428D02*
X109691428Y-89538571D01*
X109691428Y-89624285D01*
X109620000Y-89710000D01*
X109477142Y-89767142D01*
X109334285Y-89795714D01*
X109048571Y-89824285D01*
X108834285Y-89824285D01*
X108548571Y-89795714D01*
X108405714Y-89767142D01*
X108262857Y-89710000D01*
X108191428Y-89624285D01*
X108191428Y-89567142D01*
X108262857Y-89481428D01*
X108334285Y-89452857D01*
X108834285Y-89452857D01*
X108834285Y-89567142D01*
X108334285Y-89195714D02*
X108262857Y-89167142D01*
X108191428Y-89195714D01*
X108262857Y-89224285D01*
X108334285Y-89195714D01*
X108191428Y-89195714D01*
X108191428Y-88624285D02*
X108191428Y-88910000D01*
X109691428Y-88910000D01*
X109691428Y-88310000D02*
X109691428Y-88195714D01*
X109620000Y-88138571D01*
X109477142Y-88081428D01*
X109191428Y-88052857D01*
X108691428Y-88052857D01*
X108405714Y-88081428D01*
X108262857Y-88138571D01*
X108191428Y-88195714D01*
X108191428Y-88310000D01*
X108262857Y-88367142D01*
X108405714Y-88424285D01*
X108691428Y-88452857D01*
X109191428Y-88452857D01*
X109477142Y-88424285D01*
X109620000Y-88367142D01*
X109691428Y-88310000D01*
X108191428Y-87510000D02*
X108191428Y-87795714D01*
X109691428Y-87795714D01*
D11*
X103506666Y-88523333D02*
X102806666Y-88523333D01*
X102806666Y-88690000D01*
X102840000Y-88790000D01*
X102906666Y-88856666D01*
X102973333Y-88890000D01*
X103106666Y-88923333D01*
X103206666Y-88923333D01*
X103340000Y-88890000D01*
X103406666Y-88856666D01*
X103473333Y-88790000D01*
X103506666Y-88690000D01*
X103506666Y-88523333D01*
X103240000Y-89223333D02*
X103240000Y-89756666D01*
X103516666Y-90573333D02*
X102816666Y-90573333D01*
X102816666Y-90740000D01*
X102850000Y-90840000D01*
X102916666Y-90906666D01*
X102983333Y-90940000D01*
X103116666Y-90973333D01*
X103216666Y-90973333D01*
X103350000Y-90940000D01*
X103416666Y-90906666D01*
X103483333Y-90840000D01*
X103516666Y-90740000D01*
X103516666Y-90573333D01*
X103250000Y-91273333D02*
X103250000Y-91806666D01*
X103516666Y-91540000D02*
X102983333Y-91540000D01*
X102040000Y-92853333D02*
X102006666Y-92786666D01*
X102006666Y-92686666D01*
X102040000Y-92586666D01*
X102106666Y-92520000D01*
X102173333Y-92486666D01*
X102306666Y-92453333D01*
X102406666Y-92453333D01*
X102540000Y-92486666D01*
X102606666Y-92520000D01*
X102673333Y-92586666D01*
X102706666Y-92686666D01*
X102706666Y-92753333D01*
X102673333Y-92853333D01*
X102640000Y-92886666D01*
X102406666Y-92886666D01*
X102406666Y-92753333D01*
X101996666Y-87486666D02*
X102696666Y-87720000D01*
X101996666Y-87953333D01*
D10*
M02*
