G04 #@! TF.GenerationSoftware,KiCad,Pcbnew,(5.1.2-1)-1*
G04 #@! TF.CreationDate,2019-07-26T12:58:34-07:00*
G04 #@! TF.ProjectId,DemonSeed,44656d6f-6e53-4656-9564-2e6b69636164,rev?*
G04 #@! TF.SameCoordinates,Original*
G04 #@! TF.FileFunction,Legend,Top*
G04 #@! TF.FilePolarity,Positive*
%FSLAX46Y46*%
G04 Gerber Fmt 4.6, Leading zero omitted, Abs format (unit mm)*
G04 Created by KiCad (PCBNEW (5.1.2-1)-1) date 2019-07-26 12:58:34*
%MOMM*%
%LPD*%
G04 APERTURE LIST*
%ADD10C,0.200000*%
%ADD11C,0.120000*%
%ADD12C,0.100000*%
G04 APERTURE END LIST*
D10*
X104180000Y-92030000D02*
G75*
G03X104180000Y-92030000I-100000J0D01*
G01*
D11*
X102220000Y-87330000D02*
X103420000Y-87330000D01*
X102220000Y-85480000D02*
X102220000Y-87330000D01*
X103420000Y-85480000D02*
X103420000Y-87330000D01*
X103420000Y-93110000D02*
X102220000Y-93110000D01*
X103420000Y-94960000D02*
X103420000Y-93110000D01*
X102220000Y-94960000D02*
X102220000Y-93110000D01*
X103590000Y-89720000D02*
X103590000Y-90720000D01*
X102230000Y-90720000D02*
X102230000Y-89720000D01*
X105160000Y-86100000D02*
X104160000Y-86100000D01*
X104160000Y-84740000D02*
X105160000Y-84740000D01*
X104190000Y-93870000D02*
X105190000Y-93870000D01*
X105190000Y-95230000D02*
X104190000Y-95230000D01*
X106497348Y-89058662D02*
X107010000Y-88546009D01*
X107010000Y-88546009D02*
X107522652Y-89058662D01*
X107522652Y-94001338D02*
X107010000Y-94513991D01*
X107010000Y-94513991D02*
X106497348Y-94001338D01*
X109481338Y-92042652D02*
X109993991Y-91530000D01*
X109993991Y-91530000D02*
X109481338Y-91017348D01*
X104538662Y-91017348D02*
X104026009Y-91530000D01*
D12*
X102494761Y-86350952D02*
X102494761Y-85950952D01*
X102590000Y-85950952D01*
X102647142Y-85970000D01*
X102685238Y-86008095D01*
X102704285Y-86046190D01*
X102723333Y-86122380D01*
X102723333Y-86179523D01*
X102704285Y-86255714D01*
X102685238Y-86293809D01*
X102647142Y-86331904D01*
X102590000Y-86350952D01*
X102494761Y-86350952D01*
X103104285Y-86350952D02*
X102875714Y-86350952D01*
X102990000Y-86350952D02*
X102990000Y-85950952D01*
X102951904Y-86008095D01*
X102913809Y-86046190D01*
X102875714Y-86065238D01*
X102534761Y-94430952D02*
X102534761Y-94030952D01*
X102630000Y-94030952D01*
X102687142Y-94050000D01*
X102725238Y-94088095D01*
X102744285Y-94126190D01*
X102763333Y-94202380D01*
X102763333Y-94259523D01*
X102744285Y-94335714D01*
X102725238Y-94373809D01*
X102687142Y-94411904D01*
X102630000Y-94430952D01*
X102534761Y-94430952D01*
X102915714Y-94069047D02*
X102934761Y-94050000D01*
X102972857Y-94030952D01*
X103068095Y-94030952D01*
X103106190Y-94050000D01*
X103125238Y-94069047D01*
X103144285Y-94107142D01*
X103144285Y-94145238D01*
X103125238Y-94202380D01*
X102896666Y-94430952D01*
X103144285Y-94430952D01*
X103520952Y-87866190D02*
X103520952Y-88056666D01*
X103711428Y-88075714D01*
X103692380Y-88056666D01*
X103673333Y-88018571D01*
X103673333Y-87923333D01*
X103692380Y-87885238D01*
X103711428Y-87866190D01*
X103749523Y-87847142D01*
X103844761Y-87847142D01*
X103882857Y-87866190D01*
X103901904Y-87885238D01*
X103920952Y-87923333D01*
X103920952Y-88018571D01*
X103901904Y-88056666D01*
X103882857Y-88075714D01*
X103520952Y-87732857D02*
X103920952Y-87599523D01*
X103520952Y-87466190D01*
X107600000Y-95184761D02*
X107580952Y-95222857D01*
X107580952Y-95280000D01*
X107600000Y-95337142D01*
X107638095Y-95375238D01*
X107676190Y-95394285D01*
X107752380Y-95413333D01*
X107809523Y-95413333D01*
X107885714Y-95394285D01*
X107923809Y-95375238D01*
X107961904Y-95337142D01*
X107980952Y-95280000D01*
X107980952Y-95241904D01*
X107961904Y-95184761D01*
X107942857Y-95165714D01*
X107809523Y-95165714D01*
X107809523Y-95241904D01*
X107980952Y-94994285D02*
X107580952Y-94994285D01*
X107980952Y-94765714D01*
X107580952Y-94765714D01*
X107980952Y-94575238D02*
X107580952Y-94575238D01*
X107580952Y-94480000D01*
X107600000Y-94422857D01*
X107638095Y-94384761D01*
X107676190Y-94365714D01*
X107752380Y-94346666D01*
X107809523Y-94346666D01*
X107885714Y-94365714D01*
X107923809Y-94384761D01*
X107961904Y-94422857D01*
X107980952Y-94480000D01*
X107980952Y-94575238D01*
X102873333Y-90430952D02*
X102740000Y-90240476D01*
X102644761Y-90430952D02*
X102644761Y-90030952D01*
X102797142Y-90030952D01*
X102835238Y-90050000D01*
X102854285Y-90069047D01*
X102873333Y-90107142D01*
X102873333Y-90164285D01*
X102854285Y-90202380D01*
X102835238Y-90221428D01*
X102797142Y-90240476D01*
X102644761Y-90240476D01*
X103254285Y-90430952D02*
X103025714Y-90430952D01*
X103140000Y-90430952D02*
X103140000Y-90030952D01*
X103101904Y-90088095D01*
X103063809Y-90126190D01*
X103025714Y-90145238D01*
X104850952Y-85536666D02*
X104660476Y-85670000D01*
X104850952Y-85765238D02*
X104450952Y-85765238D01*
X104450952Y-85612857D01*
X104470000Y-85574761D01*
X104489047Y-85555714D01*
X104527142Y-85536666D01*
X104584285Y-85536666D01*
X104622380Y-85555714D01*
X104641428Y-85574761D01*
X104660476Y-85612857D01*
X104660476Y-85765238D01*
X104450952Y-85403333D02*
X104450952Y-85155714D01*
X104603333Y-85289047D01*
X104603333Y-85231904D01*
X104622380Y-85193809D01*
X104641428Y-85174761D01*
X104679523Y-85155714D01*
X104774761Y-85155714D01*
X104812857Y-85174761D01*
X104831904Y-85193809D01*
X104850952Y-85231904D01*
X104850952Y-85346190D01*
X104831904Y-85384285D01*
X104812857Y-85403333D01*
X104880952Y-94586666D02*
X104690476Y-94720000D01*
X104880952Y-94815238D02*
X104480952Y-94815238D01*
X104480952Y-94662857D01*
X104500000Y-94624761D01*
X104519047Y-94605714D01*
X104557142Y-94586666D01*
X104614285Y-94586666D01*
X104652380Y-94605714D01*
X104671428Y-94624761D01*
X104690476Y-94662857D01*
X104690476Y-94815238D01*
X104519047Y-94434285D02*
X104500000Y-94415238D01*
X104480952Y-94377142D01*
X104480952Y-94281904D01*
X104500000Y-94243809D01*
X104519047Y-94224761D01*
X104557142Y-94205714D01*
X104595238Y-94205714D01*
X104652380Y-94224761D01*
X104880952Y-94453333D01*
X104880952Y-94205714D01*
X104280952Y-90659047D02*
X104090476Y-90792380D01*
X104280952Y-90887619D02*
X103880952Y-90887619D01*
X103880952Y-90735238D01*
X103900000Y-90697142D01*
X103919047Y-90678095D01*
X103957142Y-90659047D01*
X104014285Y-90659047D01*
X104052380Y-90678095D01*
X104071428Y-90697142D01*
X104090476Y-90735238D01*
X104090476Y-90887619D01*
X104261904Y-90506666D02*
X104280952Y-90449523D01*
X104280952Y-90354285D01*
X104261904Y-90316190D01*
X104242857Y-90297142D01*
X104204761Y-90278095D01*
X104166666Y-90278095D01*
X104128571Y-90297142D01*
X104109523Y-90316190D01*
X104090476Y-90354285D01*
X104071428Y-90430476D01*
X104052380Y-90468571D01*
X104033333Y-90487619D01*
X103995238Y-90506666D01*
X103957142Y-90506666D01*
X103919047Y-90487619D01*
X103900000Y-90468571D01*
X103880952Y-90430476D01*
X103880952Y-90335238D01*
X103900000Y-90278095D01*
X103880952Y-90163809D02*
X103880952Y-89935238D01*
X104280952Y-90049523D02*
X103880952Y-90049523D01*
X109030952Y-89498571D02*
X108630952Y-89498571D01*
X108916666Y-89365238D01*
X108630952Y-89231904D01*
X109030952Y-89231904D01*
X109030952Y-89041428D02*
X108630952Y-89041428D01*
X109011904Y-88870000D02*
X109030952Y-88812857D01*
X109030952Y-88717619D01*
X109011904Y-88679523D01*
X108992857Y-88660476D01*
X108954761Y-88641428D01*
X108916666Y-88641428D01*
X108878571Y-88660476D01*
X108859523Y-88679523D01*
X108840476Y-88717619D01*
X108821428Y-88793809D01*
X108802380Y-88831904D01*
X108783333Y-88850952D01*
X108745238Y-88870000D01*
X108707142Y-88870000D01*
X108669047Y-88850952D01*
X108650000Y-88831904D01*
X108630952Y-88793809D01*
X108630952Y-88698571D01*
X108650000Y-88641428D01*
X108630952Y-88393809D02*
X108630952Y-88317619D01*
X108650000Y-88279523D01*
X108688095Y-88241428D01*
X108764285Y-88222380D01*
X108897619Y-88222380D01*
X108973809Y-88241428D01*
X109011904Y-88279523D01*
X109030952Y-88317619D01*
X109030952Y-88393809D01*
X109011904Y-88431904D01*
X108973809Y-88470000D01*
X108897619Y-88489047D01*
X108764285Y-88489047D01*
X108688095Y-88470000D01*
X108650000Y-88431904D01*
X108630952Y-88393809D01*
X109690952Y-87968571D02*
X109290952Y-87968571D01*
X109576666Y-87835238D01*
X109290952Y-87701904D01*
X109690952Y-87701904D01*
X109290952Y-87435238D02*
X109290952Y-87359047D01*
X109310000Y-87320952D01*
X109348095Y-87282857D01*
X109424285Y-87263809D01*
X109557619Y-87263809D01*
X109633809Y-87282857D01*
X109671904Y-87320952D01*
X109690952Y-87359047D01*
X109690952Y-87435238D01*
X109671904Y-87473333D01*
X109633809Y-87511428D01*
X109557619Y-87530476D01*
X109424285Y-87530476D01*
X109348095Y-87511428D01*
X109310000Y-87473333D01*
X109290952Y-87435238D01*
X109671904Y-87111428D02*
X109690952Y-87054285D01*
X109690952Y-86959047D01*
X109671904Y-86920952D01*
X109652857Y-86901904D01*
X109614761Y-86882857D01*
X109576666Y-86882857D01*
X109538571Y-86901904D01*
X109519523Y-86920952D01*
X109500476Y-86959047D01*
X109481428Y-87035238D01*
X109462380Y-87073333D01*
X109443333Y-87092380D01*
X109405238Y-87111428D01*
X109367142Y-87111428D01*
X109329047Y-87092380D01*
X109310000Y-87073333D01*
X109290952Y-87035238D01*
X109290952Y-86940000D01*
X109310000Y-86882857D01*
X109690952Y-86711428D02*
X109290952Y-86711428D01*
X106471904Y-87704285D02*
X106490952Y-87647142D01*
X106490952Y-87551904D01*
X106471904Y-87513809D01*
X106452857Y-87494761D01*
X106414761Y-87475714D01*
X106376666Y-87475714D01*
X106338571Y-87494761D01*
X106319523Y-87513809D01*
X106300476Y-87551904D01*
X106281428Y-87628095D01*
X106262380Y-87666190D01*
X106243333Y-87685238D01*
X106205238Y-87704285D01*
X106167142Y-87704285D01*
X106129047Y-87685238D01*
X106110000Y-87666190D01*
X106090952Y-87628095D01*
X106090952Y-87532857D01*
X106110000Y-87475714D01*
X106452857Y-87075714D02*
X106471904Y-87094761D01*
X106490952Y-87151904D01*
X106490952Y-87190000D01*
X106471904Y-87247142D01*
X106433809Y-87285238D01*
X106395714Y-87304285D01*
X106319523Y-87323333D01*
X106262380Y-87323333D01*
X106186190Y-87304285D01*
X106148095Y-87285238D01*
X106110000Y-87247142D01*
X106090952Y-87190000D01*
X106090952Y-87151904D01*
X106110000Y-87094761D01*
X106129047Y-87075714D01*
X106490952Y-86904285D02*
X106090952Y-86904285D01*
X106490952Y-86675714D02*
X106262380Y-86847142D01*
X106090952Y-86675714D02*
X106319523Y-86904285D01*
M02*
